<?xml version="1.0" encoding="UTF-8" standalone="no"?>
<!-- Created with Inkscape (http://www.inkscape.org/) -->
<svg
   xmlns:dc="http://purl.org/dc/elements/1.1/"
   xmlns:cc="http://creativecommons.org/ns#"
   xmlns:rdf="http://www.w3.org/1999/02/22-rdf-syntax-ns#"
   xmlns:svg="http://www.w3.org/2000/svg"
   xmlns="http://www.w3.org/2000/svg"
   xmlns:sodipodi="http://sodipodi.sourceforge.net/DTD/sodipodi-0.dtd"
   xmlns:inkscape="http://www.inkscape.org/namespaces/inkscape"
   id="svg2"
   sodipodi:version="0.32"
   inkscape:version="0.46"
   width="960"
   height="701"
   version="1.0"
   sodipodi:docname="grammicon.svg"
   inkscape:output_extension="org.inkscape.output.svg.inkscape">
  <metadata
     id="metadata7">
    <rdf:RDF>
      <cc:Work
         rdf:about="">
        <dc:format>image/svg+xml</dc:format>
        <dc:type
           rdf:resource="http://purl.org/dc/dcmitype/StillImage" />
      </cc:Work>
    </rdf:RDF>
  </metadata>
  <defs
     id="defs5">
    <inkscape:perspective
       sodipodi:type="inkscape:persp3d"
       inkscape:vp_x="0 : 526.18109 : 1"
       inkscape:vp_y="0 : 1000 : 0"
       inkscape:vp_z="744.09448 : 526.18109 : 1"
       inkscape:persp3d-origin="372.04724 : 350.78739 : 1"
       id="perspective9" />
  </defs>
  <sodipodi:namedview
     inkscape:window-height="949"
     inkscape:window-width="1382"
     inkscape:pageshadow="2"
     inkscape:pageopacity="0.0"
     guidetolerance="10.0"
     gridtolerance="10.0"
     objecttolerance="10.0"
     borderopacity="1.0"
     bordercolor="#666666"
     pagecolor="#ffffff"
     id="base"
     showgrid="false"
     inkscape:zoom="0.9983453"
     inkscape:cx="480"
     inkscape:cy="350.5"
     inkscape:window-x="0"
     inkscape:window-y="39"
     inkscape:current-layer="layer2" />
  <g
     inkscape:groupmode="layer"
     id="layer2"
     inkscape:label="favicon">
    <path
       style="opacity:1"
       id="path2391"
       d="M 220.49967,610.66705 C 217.54713,610.32174 214.56398,610.44897 211.59883,610.50935 C 211.12109,610.50811 210.63975,610.56419 210.16562,610.50563 C 209.08081,610.37165 208.03036,610.02604 206.94808,609.87298 C 205.46284,609.66293 203.97507,609.57812 202.47832,609.50879 C 200.89814,608.87504 199.12383,609.04402 197.50402,608.65889 C 196.73858,608.4769 196.02375,608.11993 195.26481,607.9125 C 193.48388,607.42575 191.94777,607.2343 190.12482,606.9445 C 187.31888,606.31292 184.4846,605.85853 181.62012,605.60077 C 180.58859,605.50795 179.54683,605.52361 178.52059,605.3839 C 176.23424,605.07264 173.98154,604.54569 171.6994,604.20495 C 169.53879,603.72716 167.30921,603.85924 165.1327,603.5374 C 163.99071,603.36853 162.87711,603.04256 161.74207,602.83198 C 158.35314,602.20325 154.95142,601.84358 151.52177,601.53978 C 145.03852,600.63109 138.51689,600.02176 131.98921,599.53022 C 129.47984,599.24781 126.93921,599.44432 124.42676,599.27518 C 122.34264,599.13488 120.25512,598.78495 118.17091,598.60442 C 114.92617,598.65311 111.80738,597.7928 108.58905,597.52586 C 105.68675,597.68805 102.90938,596.98522 100.05268,596.64447 C 98.541999,596.24153 96.872047,596.76977 95.365508,596.49054 C 94.550491,596.33949 93.790176,595.97012 92.987285,595.76411 C 90.500472,595.56406 88.233135,594.53558 85.84996,593.8599 C 83.107241,592.68796 80.33189,591.58797 77.646895,590.28626 C 75.187866,589.64821 72.946721,588.46445 70.577084,587.59904 C 68.235099,587.01764 66.198963,585.57871 64.029933,584.55385 C 61.932115,583.24733 60.24733,581.5291 58.588568,579.71253 C 57.081537,578.38642 55.688035,576.95685 54.355036,575.45153 C 52.661036,573.37005 51.052331,571.27715 49.756341,568.91658 C 47.140684,564.76431 45.897653,559.95758 44.28116,555.36753 C 42.667303,551.08555 40.9521,546.83201 38.672782,542.8556 C 37.449889,540.30244 36.086589,537.8255 34.726805,535.34531 C 33.594003,532.93829 31.956174,530.86951 30.39151,528.74403 C 28.943238,526.94522 27.329776,525.29836 26.012291,523.38407 C 24.528649,521.16938 22.65485,519.26623 21.206246,517.03473 C 20.118649,515.72948 19.498595,514.14508 18.455947,512.79621 C 17.769135,511.90769 16.975148,511.10734 16.246507,510.25278 C 14.413961,508.12893 12.796975,505.8277 11.23862,503.49848 C 10.003463,501.62716 8.7111013,499.8251 7.7020052,497.81208 C 6.8132455,495.86094 5.9285826,493.9081 5.1759002,491.89987 C 4.4296285,489.99294 3.8053646,488.04371 3.1251497,486.11241 C 2.6207938,484.25544 2.1222816,482.39708 1.7235679,480.51271 C 1.3905088,478.1638 1.0418353,475.82888 0.66438125,473.4839 C 0.59294641,470.97752 0.47906156,468.37937 0.95282793,465.90913 C 1.1738459,464.13424 1.76156,462.41827 2.050787,460.65968 C 2.566193,457.52585 1.8167311,460.80551 2.4583786,458.18157 C 3.2210713,455.87255 3.9810729,453.56389 4.8880984,451.30577 C 5.8173409,448.271 6.5221872,445.18538 7.1588165,442.07841 C 7.6441776,439.85025 7.5066921,437.61941 8.3205258,435.46936 C 9.3886033,432.56315 9.2807837,429.44469 8.9739595,426.41591 C 8.5887499,423.67468 8.4769466,420.90394 8.1552568,418.15672 C 7.6212539,415.63746 7.597448,413.04859 7.1735414,410.51745 C 6.6500065,407.99564 6.5540185,405.41469 6.1791748,402.87849 C 5.6699608,400.33292 5.5182032,397.7365 5.1794957,395.16808 C 4.666973,392.49001 4.4247179,389.77357 4.2172194,387.05782 C 3.9935152,384.44708 4.1411784,381.82762 4.103348,379.21217 C 4.2478786,376.57939 4.6016705,373.96676 5.1342425,371.38626 C 5.7119083,368.7797 5.8762163,366.12103 6.8576648,363.61603 C 7.4292161,361.06377 8.3155188,358.60951 8.9670782,356.08478 C 10.225911,352.55706 11.597139,349.07615 12.735893,345.50567 C 13.762016,341.88318 14.752707,338.25871 15.852868,334.6604 C 16.261199,331.93545 17.508552,329.47166 18.158818,326.82455 C 18.999818,324.76866 19.069291,322.52823 20.098449,320.54712 C 20.998745,319.13593 20.126474,320.68365 20.763787,318.76353 C 20.960649,318.17041 21.408719,317.68761 21.647667,317.11016 C 22.551194,314.92668 21.476493,316.7425 22.566226,315.06463 C 22.748979,314.85166 22.983167,314.67373 23.114486,314.42571 C 23.283685,314.10616 23.296699,313.72154 23.450609,313.39435 C 24.433916,311.30396 26.180577,309.54884 27.563215,307.72677 C 27.911728,307.28794 28.28692,306.86903 28.608754,306.41028 C 28.914188,305.9749 29.141861,305.48874 29.441517,305.04936 C 30.337433,303.73571 31.407932,302.56173 32.266641,301.22507 C 34.235781,298.02471 36.593097,295.07004 38.985031,292.16756 C 41.215773,288.94684 43.471146,285.73962 45.58615,282.44128 C 47.519635,280.1458 48.845053,277.38336 50.37802,274.80766 C 52.426366,272.18646 54.300793,269.42587 56.037769,266.59072 C 57.591202,264.38747 59.012795,262.10479 60.264887,259.69943 C 61.395117,257.35127 63.093509,255.33916 64.305159,253.04007 C 65.588475,250.91055 66.399587,248.53107 67.978004,246.58741 C 70.029398,242.83027 72.405366,239.26267 74.515797,235.53235 C 74.843945,234.89909 75.142159,234.2494 75.500242,233.63257 C 75.942589,232.87059 76.478638,232.16527 76.914859,231.39977 C 78.420978,228.75676 79.563899,225.91073 80.805136,223.13984 C 81.61395,221.25886 82.312288,219.29235 83.341724,217.51406 C 85.1661,214.36256 82.895872,218.94312 84.632927,215.29535 C 85.920996,212.53011 87.286146,209.77323 89.015318,207.2535 C 90.585688,204.94185 91.856016,202.29793 93.854453,200.32212 C 95.503145,197.81642 93.560376,200.55358 95.222017,198.74509 C 95.503144,198.43912 95.676929,198.04375 95.964403,197.74374 C 96.204147,197.49353 96.543138,197.35477 96.788599,197.11017 C 97.108393,196.7915 97.362522,196.41312 97.649484,196.0646 C 97.973634,195.7437 98.297785,195.42281 98.621935,195.10192 C 101.39218,192.80848 103.95061,190.2908 106.59274,187.85703 C 107.6214,186.8608 108.83029,186.05675 109.86169,185.06497 C 110.18831,184.75091 110.44162,184.36392 110.78062,184.06326 C 113.05006,182.05041 110.38221,184.90887 112.41491,182.62974 C 115.51464,180.54051 118.14042,177.86331 121.05624,175.5321 C 125.33858,172.052 129.87459,168.91703 134.13352,165.39057 C 138.5262,161.93843 143.10035,158.7039 147.36299,155.08931 C 149.84303,153.44338 152.19732,151.61477 154.75121,150.08734 C 155.06747,149.82071 155.35299,149.51263 155.69999,149.28745 C 155.98675,149.10136 156.34796,149.05149 156.63457,148.86516 C 156.91799,148.68091 157.12229,148.39494 157.39012,148.18868 C 157.65671,147.98337 157.97305,147.84699 158.23341,147.63383 C 158.50594,147.4107 158.68403,147.07674 158.9805,146.88658 C 159.46519,146.5757 160.02278,146.39677 160.54392,146.15186 C 164.04715,143.73808 167.29762,140.98319 170.62238,138.32369 C 173.05826,136.29526 175.62617,134.46007 177.86632,132.20803 C 178.16302,132.05081 178.48457,131.93349 178.7564,131.73638 C 179.02656,131.54047 179.21685,131.25053 179.47626,131.04059 C 180.7171,130.03638 182.11214,129.25492 183.34917,128.24361 C 205.17299,115.65237 239.23025,96.004333 249.82622,89.765167 C 269.98462,77.895416 209.34131,113.2169 189.07249,124.89707 C 188.5436,125.20185 190.07453,124.1969 190.60383,123.89284 C 254.83549,86.995114 232.93924,97.430444 257.55104,85.777947 C 261.24578,83.909974 264.63008,81.472714 268.36452,79.695984 C 247.6875,91.609888 227.02392,103.54715 206.33347,115.4377 C 206.01548,115.62044 206.92674,115.00388 207.24456,114.82086 C 228.70215,102.46464 250.18818,90.157867 271.65715,77.821438 C 271.95431,77.650688 272.22719,77.432727 272.5429,77.299359 C 272.87113,77.160697 273.88129,76.834314 273.57259,77.012268 C 252.64702,89.074992 231.63332,100.98419 210.66368,112.97015 C 391.01788,8.9912641 203.64598,116.98673 212.23991,112.14724 C 233.82622,99.991377 255.56132,88.060956 276.59877,74.978156 C 297.08141,62.240376 234.7806,99.028228 213.90522,111.11162 C 213.59484,111.29128 214.58794,110.87625 214.89653,110.69354 C 215.2162,110.50427 215.48106,110.23488 215.77333,110.00554 C 237.26537,97.673906 258.7574,85.34227 280.24943,73.010633 C 280.56006,72.836555 281.49006,72.310993 281.18132,72.488398 C 260.34642,84.460322 198.13572,120.87327 218.67089,108.39422 C 239.84159,95.52896 261.51778,83.512163 283.08847,71.329439 C 296.23428,63.904934 99.717372,176.72081 285.11115,70.260449 C 121.18786,164.71712 284.7067,70.461268 287.77544,68.76364 C 308.94348,57.053479 245.8257,92.869099 224.85645,104.93162 C 224.55693,105.10391 225.46692,104.60737 225.76606,104.43442 C 247.22201,92.02923 268.66966,79.609699 290.12147,67.197339 C 269.26038,79.282135 248.42199,91.406178 227.53822,103.45173 C 227.25812,103.61329 228.02234,103.01587 228.30228,102.85403 C 249.74979,90.45432 271.30951,78.248622 292.71228,65.771864 C 313.60831,53.590517 210.36682,116.33801 229.82256,101.96778 C 249.73954,87.256862 271.15093,74.028473 294.10486,64.743287 C 316.58717,55.64888 252.20283,89.174179 231.25182,101.38963 C 250.01529,83.961112 228.57545,103.79658 296.10422,63.516527 C 316.71139,51.224607 254.62542,87.651679 233.84613,99.650348 C 233.36231,99.929726 234.74961,98.992556 235.21141,98.678106 C 237.68595,96.993147 235.59527,98.553865 237.89947,96.773205 C 239.86691,95.27482 242.14489,94.29478 244.01861,92.681117 C 266.09372,80.671667 287.11519,66.767742 309.3551,55.067074 C 288.47162,67.127941 267.58814,79.188808 246.70466,91.249675 C 246.95021,91.063017 247.17908,90.852087 247.44132,90.6897 C 268.77364,77.479881 290.86919,65.54432 312.56774,52.945119 C 290.39793,65.761543 165.46186,137.93155 314.38946,52.064179 C 314.68749,51.892343 314.93988,51.643325 315.25002,51.494455 C 316.45625,50.915449 317.21511,50.836816 318.42288,50.047256 C 319.55237,49.039184 321.15188,49.022222 322.44281,48.41648 C 322.83414,48.232859 323.10295,47.841433 323.49379,47.656793 C 325.16639,47.212024 324.38162,47.526846 325.85533,46.730551 C 326.59843,46.250329 327.50389,46.358205 328.30145,46.084007 C 328.65814,45.961377 328.95397,45.700239 329.30332,45.558026 C 330.40753,45.108519 331.58441,45.031225 332.75611,44.945361 C 334.12233,43.364504 336.00392,44.358256 337.73329,44.000287 C 338.05737,43.933206 338.33052,43.714944 338.62913,43.572272 C 340.14397,42.911462 341.86979,43.451483 343.42899,43.121748 C 344.16266,42.966593 344.83054,42.579998 345.55468,42.385152 C 346.28098,42.058583 347.10985,42.304089 347.85042,42.087269 C 348.17332,41.992733 348.40981,41.689107 348.73411,41.599513 C 349.85405,41.29011 351.64247,41.344375 352.82361,41.251867 C 354.21168,40.973534 355.66382,41.369902 357.05111,41.166773 C 357.5611,41.092099 358.03857,40.868094 358.54091,40.752692 C 360.3977,40.326135 360.78771,40.34203 362.7387,40.123218 C 364.93952,39.654682 367.22344,39.816319 369.4386,39.522962 C 371.23181,39.285484 373.03081,38.771414 374.82055,38.46978 C 376.19868,38.256558 377.58908,38.138619 378.98215,38.088501 C 379.37929,38.074214 379.78672,38.152519 380.17408,38.063751 C 380.49441,37.990342 380.74655,37.73663 381.05156,37.614263 C 381.36633,37.487976 381.70106,37.418645 382.02582,37.320836 C 382.68314,36.998164 383.44883,37.265711 384.1202,37.054726 C 386.34785,36.354661 383.40071,36.685961 385.88319,36.259719 C 388.70249,35.775643 385.42797,36.712517 388.20263,35.830456 C 390.01548,35.315056 391.96557,34.96498 393.68688,34.159367 C 394.62837,33.71873 395.49953,33.141249 396.40753,32.635191 C 397.88611,31.726954 399.53031,31.256317 400.99732,30.324137 C 401.44711,30.038331 401.84413,29.673487 402.2993,29.396326 C 406.50521,26.835254 400.998,30.51793 404.83109,27.904426 C 384.16867,39.866714 363.52627,51.863661 342.84383,63.79129 C 342.47958,64.001353 343.51323,63.279851 343.87161,63.059937 C 345.15237,62.274043 346.44101,61.500643 347.74209,60.748876 C 417.23377,20.596344 390.87968,36.456133 414.18651,22.415191 C 415.93917,21.213392 417.96203,20.527962 419.83357,19.555707 C 421.50138,18.689288 423.03892,17.736128 424.76823,16.982224 C 426.42057,16.439958 427.78592,15.346072 429.333,14.591964 C 430.85555,13.849812 432.15416,13.225856 433.53184,12.22142 C 435.3601,11.545191 436.86295,10.232783 438.68376,9.5641433 C 440.73123,8.81227 439.41646,9.6664986 440.98633,8.413388 C 442.03472,7.9185677 443.04767,7.4303702 444.18986,7.1913105 C 444.59768,7.1059539 445.03946,7.1565081 445.4248,6.998019 C 446.51597,6.1338119 445.92574,6.475878 447.1896,5.961748 C 447.96114,5.7367003 448.82294,6.1317038 449.59405,5.9125289 C 449.90931,5.8229204 450.11361,5.5062495 450.40564,5.3574477 C 451.32163,4.8907033 452.34682,4.87641 453.345,4.8311344 C 454.46275,4.658731 455.60427,5.1584195 456.7173,4.9996351 C 457.16251,4.936122 457.56803,4.7031465 458.00527,4.5979778 C 458.5474,4.4675811 461.29878,3.9912644 461.79912,3.9029886 C 463.5219,3.4132146 465.38658,3.5753181 467.12114,3.1982827 C 467.56857,3.1010269 467.97586,2.8680633 468.41201,2.7286881 C 469.50957,2.3779529 469.78257,2.3624859 470.89912,2.1546558 C 472.36513,1.7117071 473.98263,2.2182885 475.45036,1.9577884 C 475.77187,1.9007239 476.04702,1.6873096 476.35999,1.5941423 C 476.72162,1.4864882 477.09795,1.4363675 477.46693,1.3574801 C 479.76348,0.98216243 482.09641,0.99310544 484.4161,1.005871 C 484.7729,1.0096077 485.14495,1.1203057 485.48651,1.017081 C 485.76143,0.93399808 485.91544,0.6304868 486.15945,0.47901652 C 486.39219,0.33453759 486.64567,0.22052822 486.90618,0.13581116 C 487.77217,-0.14580012 488.72214,-0.1030151 489.61764,-0.10887716 C 489.9435,-0.10223977 490.27999,-0.0061416243 490.59522,-0.088964994 C 490.86658,-0.1602623 491.06442,-0.39675038 491.29902,-0.55064307 C 491.59809,-0.63918309 491.89144,-0.75006351 492.19623,-0.81626314 C 493.48072,-1.0952447 493.85455,-0.79669991 495.04819,-1.5171494 C 495.37145,-1.614415 495.6947,-1.7116805 496.01796,-1.8089461 C 496.41412,-1.8295269 496.82044,-1.7791342 497.20642,-1.8706885 C 497.56924,-1.9567502 497.87404,-2.2073719 498.2253,-2.3325298 C 499.38924,-2.7472605 500.62375,-2.8618096 501.84216,-2.9861523 C 503.13206,-4.0129119 504.77754,-3.6728106 506.13367,-4.0586023 C 506.45121,-4.1489363 506.69652,-4.4096978 507.00189,-4.5351718 C 507.32544,-4.6681201 507.67346,-4.7312403 508.00925,-4.8292745 C 508.70054,-5.145927 509.4878,-4.8754457 510.19212,-5.0757678 C 510.5018,-5.1638477 510.73634,-5.4262994 511.03364,-5.5498822 C 512.02982,-5.9639779 513.13984,-6.0039955 514.19748,-6.0780097 C 515.33881,-7.1069586 516.88114,-6.7046328 518.20047,-7.0788848 C 518.50962,-7.1665816 518.74346,-7.4291057 519.04022,-7.5523902 C 519.35858,-7.6846497 519.70243,-7.7444007 520.03353,-7.840406 C 520.77344,-8.2014576 521.57419,-7.8526004 522.3292,-7.9863721 C 522.69254,-8.0507473 523.0038,-8.289442 523.35528,-8.401786 C 524.51706,-8.7731314 525.73595,-8.8748879 526.94173,-8.9860185 C 527.69133,-9.2638182 528.5408,-8.8355002 529.29281,-9.057358 C 532.53943,-10.015178 527.59015,-9.2549552 530.84398,-9.9383824 C 530.98747,-9.9685211 532.87238,-10.018232 532.97777,-10.021391 C 535.20662,-10.049547 537.43783,-10.050955 539.66483,-9.9497414 C 542.26334,-9.8775754 544.86285,-9.8549142 547.46234,-9.8553066 C 549.12099,-9.8654902 550.77945,-9.8930105 552.438,-9.9116377 C 552.80846,-9.9157983 553.19299,-10.024338 553.54938,-9.9231254 C 554.17027,-9.7467929 554.71735,-9.3733474 555.30134,-9.0984584 C 559.0686,-7.8378454 563.0864,-8.1424614 566.93633,-7.4080694 C 568.41459,-6.9678845 570.00765,-7.1299593 571.50379,-6.8554897 C 572.91567,-6.5964752 574.23325,-6.1461551 575.66981,-5.9570074 C 576.0971,-5.9226966 576.53165,-5.9396793 576.95168,-5.8540749 C 578.14533,-5.4785431 578.4655,-5.3401849 579.65629,-5.1020086 C 581.22296,-4.7886524 581.57891,-4.9625232 583.12591,-4.2771473 C 584.13256,-3.5552251 585.37726,-3.9823259 586.45454,-3.7408866 C 587.00359,-3.6178362 588.3785,-2.9016345 588.81067,-2.6898675 C 589.23104,-2.5539584 589.6617,-2.4465189 590.07178,-2.2821401 C 592.04288,-1.4920204 590.83791,-1.7439369 592.73371,-1.1800073 C 594.05563,-0.78678272 594.96278,-0.81027799 596.33925,-0.34048535 C 598.58581,0.34125769 600.93017,0.25947232 603.24798,0.23036359 C 605.56958,0.11932631 607.8882,0.15717705 610.21001,0.17824436 C 613.04786,0.17437267 615.88515,0.20815495 618.72297,0.1707704 C 621.46977,0.16910313 624.21672,0.17930719 626.96347,0.14961157 C 629.63713,0.15851716 632.31102,0.17347697 634.98469,0.14739543 C 637.73197,0.19840523 640.47971,0.14774517 643.22698,0.17482023 C 646.16251,1.0269854 649.21075,1.1434896 652.2431,1.2414415 C 652.81247,1.2539624 653.3847,1.2205767 653.9512,1.2790042 C 655.1425,1.4018726 656.31009,1.7003066 657.49804,1.8521914 C 658.94731,2.0374873 660.39277,2.1237958 661.85137,2.1831247 C 662.29334,2.1898878 662.74,2.1389251 663.17729,2.2034138 C 663.68742,2.2786428 664.17005,2.4843746 664.67275,2.5991955 C 666.36774,2.9863471 668.08425,3.1175734 669.81584,3.1857984 C 670.22915,3.1926676 670.64761,3.1409562 671.05575,3.2064059 C 671.97114,3.3531959 672.83874,3.7295512 673.75217,3.8880614 C 674.95546,4.096872 676.17952,4.1384046 677.39656,4.1871389 C 679.04644,4.9687795 680.91277,4.7920255 682.63952,5.1546145 C 683.54782,5.3453406 684.41972,5.6858506 685.32569,5.8872985 C 687.77335,7.1800557 690.60054,6.8718741 693.15555,7.6645134 C 694.37987,8.5103154 695.8397,8.5852889 697.20571,8.9986798 C 698.52859,9.399016 699.70097,9.8841666 701.0687,10.149449 C 701.96702,10.883676 703.14829,10.924946 704.16312,11.322784 C 705.49965,11.846737 706.83712,12.817137 708.09105,13.496109 C 708.71398,13.818914 709.32313,14.16983 709.95984,14.464523 C 717.2808,17.852934 706.30977,12.529372 713.65571,16.078004 C 715.35189,16.897381 716.9633,17.842456 718.6745,18.630132 C 719.35496,19.450323 720.51082,19.513175 721.30676,20.136432 C 721.82822,20.544758 722.21125,21.107072 722.70809,21.545019 C 723.15222,21.936509 723.66975,22.237768 724.12292,22.618772 C 724.34755,22.80763 726.90341,25.175603 727.15142,25.404936 C 729.31352,27.539317 731.30205,29.963736 733.70206,31.839627 C 734.91279,33.07404 736.16847,34.15856 737.23114,35.534545 C 738.43141,36.63183 739.484,37.878297 740.70276,38.983206 C 742.77476,41.212588 744.83826,43.433934 747.26971,45.308711 C 748.587,46.561183 750.12098,47.557227 751.49022,48.737055 C 753.27383,50.273923 751.55672,49.078152 752.88278,49.95908 C 753.12304,50.228161 753.39003,50.475579 753.60357,50.766324 C 753.87197,51.131763 754.04402,51.56338 754.32338,51.920513 C 755.6483,53.6143 757.39123,55.018851 758.792,56.65799 C 761.80627,59.702296 764.87553,62.676146 767.96585,65.63783 C 769.5273,67.910638 771.68482,69.67268 773.43027,71.786099 C 774.41183,72.974586 775.3029,74.235327 776.26649,75.438422 C 778.8497,78.543967 781.67146,81.439566 784.31999,84.485999 C 786.14393,86.195112 787.92901,87.944396 789.70264,89.705407 C 791.33132,92.568708 793.98635,94.515513 796.32628,96.732465 C 797.02263,97.392216 797.67035,98.101471 798.34238,98.785975 C 799.05194,99.443117 799.7615,100.10026 800.47105,100.7574 C 803.7535,103.29395 807.07999,105.76688 810.22083,108.47942 C 812.44001,110.43853 814.53799,112.52852 816.6345,114.61664 C 819.08945,117.16821 821.57332,119.63643 824.30938,121.88733 C 827.48099,124.41278 830.67472,126.91622 833.53524,129.79501 C 835.80532,132.00786 838.52282,133.66499 840.99465,135.62086 C 846.2189,139.75462 839.55771,134.84035 845.31111,139.00354 C 849.42449,142.32597 853.9093,145.12658 858.41943,147.86743 C 862.04488,149.94402 865.69989,151.96939 869.35067,154.00181 C 872.87054,155.91542 876.39152,157.84535 879.53014,160.34852 C 881.78278,162.48273 883.921,164.78631 885.71135,167.3328 C 887.32036,169.1613 888.54987,171.28156 889.94605,173.26901 C 892.3133,176.81955 894.92531,180.18902 897.47322,183.60879 C 897.98431,184.62236 898.79642,185.44542 899.35672,186.42641 C 899.73278,187.08485 900.00489,187.79843 900.36896,188.46356 C 901.50558,190.54008 902.85437,192.4798 904.22355,194.40552 C 906.40654,198.80475 908.8538,203.08609 911.41587,207.27735 C 912.39301,209.49399 914.30031,211.25286 915.31349,213.43787 C 915.62078,214.10057 915.82324,214.80701 916.07812,215.49158 C 917.38773,218.77372 918.8516,221.9916 920.45499,225.13863 C 920.63265,225.53028 920.86309,225.90205 920.98797,226.31358 C 923.30177,233.93858 919.41707,222.465 921.89384,229.90522 C 922.48392,231.67782 923.19109,233.41051 923.78975,235.18117 C 924.84542,238.02566 925.67503,240.94624 926.51918,243.8589 C 927.44522,246.4481 927.83505,249.17802 928.37221,251.86219 C 929.21777,254.53687 929.74253,257.26783 930.20798,260.02541 C 930.5735,262.93071 931.49087,265.71088 932.22985,268.52955 C 932.33827,269.34757 932.72675,270.09189 932.89667,270.89245 C 933.02655,271.50438 933.05056,272.1354 933.17636,272.74818 C 933.57501,274.68997 934.25195,276.54906 934.92732,278.40594 C 936.08234,281.98585 936.95294,285.64616 937.99106,289.26055 C 938.57077,294.8399 940.13695,300.2239 942.05827,305.47241 C 943.34903,308.54305 944.40958,311.69927 945.60453,314.80578 C 946.64705,317.08773 947.33177,319.50111 948.18021,321.85722 C 949.07594,324.21555 949.72752,326.65145 950.64234,329.00549 C 951.46386,331.43177 952.40758,333.8167 953.17993,336.25938 C 954.04958,338.71667 954.89129,341.17865 955.55781,343.69879 C 956.36413,346.08887 957.08131,348.50434 957.86348,350.90231 C 958.93275,353.7831 959.15125,356.8472 959.82724,359.81643 C 960.7526,363.4465 961.57712,367.12325 962.70784,370.6972 C 963.53479,372.65497 963.86223,374.74733 964.36689,376.79096 C 964.9826,378.92564 965.29408,381.11993 965.47429,383.32863 C 965.40295,385.55326 965.97332,387.70686 966.04735,389.92953 C 965.72841,392.91185 965.61175,395.89962 965.48898,398.89433 C 965.42123,401.45372 965.57531,404.0122 965.50937,406.57088 C 965.43995,409.11416 965.47234,411.65631 965.52313,414.19973 C 965.49165,416.34975 966.07469,418.44307 966.19129,420.59295 C 966.2209,423.29247 966.47069,425.93823 966.88692,428.60255 C 967.2431,431.28548 967.3837,433.97893 967.45511,436.68087 C 967.562,439.38888 967.47165,442.0992 967.41314,444.80757 C 967.41509,447.36233 967.50767,449.9158 967.55819,452.46985 C 967.82815,454.69779 967.46603,456.84478 967.07939,459.02734 C 966.68738,461.08476 966.83473,463.15533 966.44103,465.20972 C 965.83912,468.29593 965.00111,471.32482 964.4117,474.4139 C 963.87047,478.37904 962.5843,482.19039 961.51578,486.03534 C 960.5966,488.43046 960.52646,491.03977 959.84532,493.48905 C 959.42726,494.99233 958.87952,496.45654 958.40742,497.94374 C 957.50279,501.52485 956.75989,505.14309 955.91016,508.7364 C 955.34309,511.39361 954.35784,513.91245 953.70454,516.5538 C 953.15085,517.92095 952.72861,519.31645 952.35356,520.73006 C 951.85987,522.59086 952.51675,521.25776 951.75439,522.59106 C 951.48695,523.51524 951.19224,524.80637 950.55817,525.5733 C 950.38919,525.77769 950.06371,525.78945 949.86694,525.96727 C 948.65195,527.0652 950.00487,526.47569 948.60502,526.93315 C 948.17667,527.80706 947.25341,528.08096 946.57321,528.67559 C 946.30249,528.91224 946.13903,529.2615 945.85127,529.4771 C 943.57148,531.18519 946.48632,528.2983 944.36894,530.528 C 924.19318,547.63001 937.63163,530.4002 878.42036,568.94414 C 858.16791,582.12759 961.59175,519.7419 941.30798,532.8771 C 920.52313,546.33677 899.94997,560.8325 876.91502,569.91895 C 854.37277,578.81106 918.84739,545.61738 939.81357,533.46659 C 939.60956,533.63789 939.43196,533.84681 939.20155,533.98051 C 847.99949,586.89959 859.09564,580.03142 937.90234,534.7654 C 938.12814,534.63569 937.54153,535.15166 937.31566,535.28125 C 915.82368,547.61161 894.65047,560.52451 872.76247,572.13737 C 851.31287,583.51764 914.92069,548.03205 935.99981,535.97938 C 762.50488,635.91939 936.41994,535.75665 934.60349,536.72711 C 895.86442,557.42409 893.10172,569.52495 867.04899,574.41962 C 866.32398,575.54948 865.01886,575.30439 864.188,575.76125 C 863.91137,575.91336 863.80993,576.27847 863.55726,576.46773 C 862.98269,576.89811 862.48027,576.87929 861.80281,576.977 C 861.5035,577.07898 861.16367,577.10123 860.90488,577.28293 C 860.62746,577.47771 860.5185,577.85222 860.25412,578.06437 C 859.35221,578.78814 859.34644,578.34905 858.31052,578.77665 C 854.91901,580.17658 860.2143,578.47448 856.44963,579.61452 C 834.49601,594.33937 937.91956,531.19959 918.18203,544.32376 C 897.5535,558.04037 876.26708,571.02118 853.77439,581.40195 C 831.91411,591.49084 895.46545,557.30854 916.27685,545.20303 C 916.83423,544.87881 915.0748,545.67325 914.45881,545.8639 C 913.98119,546.72503 913.06426,546.88393 912.48569,547.65189 C 912.21946,548.00527 912.06953,548.43934 911.78998,548.78228 C 911.30805,549.37346 910.67532,549.82525 910.15331,550.38134 C 908.67855,552.74424 906.35363,554.37254 904.41524,556.3195 C 882.76179,570.46365 867.24365,578.0933 837.75293,594.74373 C 837.378,594.95541 836.90238,594.89581 836.47207,594.91056 C 835.55613,594.94193 834.64116,594.82186 833.72511,594.79359 C 833.29018,594.78156 832.84872,594.83357 832.42032,594.75751 C 831.53327,594.60002 830.71018,594.18737 829.84174,593.9476 C 828.91435,593.69156 828.00792,593.58948 827.05266,593.52586 C 826.1924,593.34387 825.23049,593.69829 824.37818,593.52135 C 823.95054,593.43257 823.56774,593.19207 823.14962,593.06587 C 822.31408,592.81368 821.69156,592.75527 820.83554,592.63127 C 819.78488,591.90219 818.42932,591.98135 817.28848,591.56596 C 816.22815,591.1799 815.43894,590.62376 814.31993,590.3785 C 812.56615,589.21297 810.43675,588.82612 808.67749,587.74151 C 806.91537,587.22681 805.47854,586.1897 803.74142,585.5673 C 803.19549,584.93863 802.26925,585.13402 801.637,584.71894 C 801.0313,584.32129 800.57338,583.73221 800.00271,583.28574 C 797.9338,581.66712 795.63839,580.46649 793.29555,579.30877 C 789.83317,577.45154 786.32364,575.71008 782.77913,574.02204 C 779.99226,572.21203 776.95349,570.91894 773.98708,569.44929 C 769.22277,567.25681 764.51127,564.95054 759.74729,562.7585 C 757.54368,561.51371 755.13886,560.7593 752.78699,559.87624 C 751.21753,559.28694 749.79283,558.69208 748.15628,558.31542 C 747.17648,557.87171 746.17479,557.23954 745.06376,557.17659 C 744.81788,557.16265 744.56935,557.28585 744.32756,557.23903 C 742.90622,556.69611 743.62079,556.89577 742.18845,556.6238 C 741.42779,556.38736 740.62065,556.56118 739.85183,556.419 C 739.35338,556.32681 738.88429,556.11359 738.3916,555.99437 C 737.02506,555.66367 735.62752,555.55097 734.231,555.4411 C 733.41397,555.25313 732.56335,555.50901 731.74445,555.37935 C 731.26611,555.3036 730.8184,555.09348 730.34795,554.97846 C 729.09962,554.67325 727.84297,554.55371 726.56584,554.4621 C 725.87227,554.83289 725.07137,554.82505 724.34298,555.06864 C 723.88747,555.22097 723.47533,555.48773 723.01856,555.6363 C 721.76774,556.04314 720.42856,556.13603 719.17918,556.54731 C 718.60471,556.73641 718.07843,557.04876 717.52806,557.29949 C 716.11924,557.94934 714.60115,558.39285 713.19008,559.02387 C 712.76709,559.21302 712.40047,559.51252 711.9821,559.71167 C 710.95581,560.20018 710.52514,560.24873 709.437,560.51678 C 710.45668,560.51636 705.5481,562.94285 706.62414,562.32297 C 727.46964,550.31445 748.36171,538.38694 769.24324,526.44118 C 769.52944,526.27745 768.72949,526.88995 768.41126,526.97622 C 768.08402,527.06492 767.73355,526.95359 767.3947,526.94228 C 764.99893,528.52539 764.39013,528.56359 763.07269,531.35245 C 762.25355,532.64226 761.72084,534.04146 761.11105,535.42497 C 760.6282,536.52048 760.03286,537.28932 759.68667,538.44839 C 759.53576,539.21983 758.87188,539.68288 758.53281,540.33858 C 758.34777,540.69641 758.29199,541.11114 758.1115,541.47128 C 757.97326,541.7471 757.72112,541.95542 757.58397,542.23178 C 756.57408,544.26682 757.94661,542.36822 756.54002,544.12008 C 756.34802,544.48075 756.20998,544.87583 755.96402,545.2021 C 755.45653,545.87526 754.77989,546.4027 754.20634,547.02055 C 752.40999,548.95565 750.51706,550.79571 748.69424,552.70617 C 745.08748,556.41973 741.24445,559.87392 737.31569,563.2381 C 734.12286,565.69351 730.83744,568.05032 727.39697,570.15497 C 704.68293,585.96878 680.27024,599.41193 655.63338,612.05137 C 653.66368,612.78375 651.94272,613.977 649.98674,614.73924 C 649.43777,614.95317 648.85618,615.07766 648.3102,615.29912 C 643.94874,617.06815 649.81257,614.98727 645.57753,616.44396 C 644.73199,617.56518 643.75454,617.51915 642.62593,617.9805 C 642.33307,618.10022 642.11615,618.36436 641.82726,618.49336 C 639.75407,619.41916 641.88304,618.04381 640.0643,619.33022 C 639.46822,619.85018 638.62136,619.51883 637.97526,619.82682 C 637.39487,620.10349 637.08829,620.79094 636.5216,621.09467 C 635.84529,621.45715 635.08668,621.63963 634.3786,621.93527 C 633.03659,622.14936 632.02067,622.98241 630.72645,623.35062 C 630.30437,623.4707 629.85432,623.48703 629.44079,623.6339 C 629.06986,623.76564 628.74252,623.99746 628.39338,624.17925 C 628.01067,624.29795 627.62795,624.41666 627.24523,624.53537 C 626.17281,625.0837 624.77623,624.53146 623.69263,624.86315 C 623.3995,624.95288 623.22878,625.27074 622.96187,625.42153 C 622.32506,625.78132 621.93317,625.7727 621.22406,625.88016 C 620.96733,625.88798 619.51071,625.9497 619.26385,625.88647 C 618.78529,625.76388 618.36727,625.46695 617.90018,625.30609 C 617.48505,625.16313 617.03422,625.13572 616.62463,624.97756 C 612.03984,623.20722 617.58795,624.88495 612.69583,623.51647 C 609.20866,622.78855 605.81388,621.71254 602.38041,620.78899 C 600.01111,620.2494 597.73662,619.36483 595.37955,618.75224 C 594.21018,618.02999 592.82485,618.00006 591.55419,617.62342 C 590.29872,617.25129 589.20516,616.78005 587.90503,616.53897 C 586.99625,616.16549 585.85668,616.6843 584.95202,616.43367 C 584.40417,616.28189 583.93691,615.91433 583.40123,615.72405 C 582.23808,615.3109 580.95586,615.13162 579.75008,614.91385 C 577.99015,614.50431 576.15326,614.6797 574.379,614.44728 C 572.76801,614.23624 571.19291,613.82583 569.57068,613.63777 C 566.47339,613.38144 563.36068,613.40678 560.256,613.46619 C 557.4958,613.50074 554.73558,613.50399 551.97541,613.54198 C 551.5285,613.53763 551.07664,613.46253 550.63467,613.52893 C 549.81681,613.6518 549.06389,614.07077 548.24833,614.20806 C 546.91423,614.43265 545.52103,614.4676 544.17304,614.55383 C 542.20244,614.78534 540.18093,614.29357 538.21739,614.46725 C 537.16407,614.56041 536.14518,614.89101 535.10421,615.07688 C 533.51148,615.45153 531.83175,615.20741 530.23265,615.39715 C 529.70543,615.4597 529.20292,615.657 528.68437,615.77092 C 526.99639,616.14173 527.22549,616.06987 525.5001,616.26081 C 523.96279,616.60715 522.36212,616.3621 520.81905,616.49634 C 519.23192,616.63441 517.60183,617.06139 516.0157,617.27624 C 515.47295,617.3126 514.92492,617.30146 514.38746,617.38532 C 513.79044,617.47847 513.2169,617.68852 512.62407,617.80541 C 509.34516,618.4519 511.3347,617.92454 507.90481,618.52143 C 507.18206,618.64721 502.9455,619.5613 502.33372,619.69218 C 501.37104,619.87098 500.39644,619.99447 499.44569,620.22856 C 497.87386,620.61555 496.35551,621.19433 494.80675,621.66525 C 492.54844,622.35192 490.28979,622.99658 488.05542,623.75872 C 487.01185,624.08034 484.96579,624.62373 483.99317,625.24463 C 483.39901,625.62394 481.7937,626.99082 482.40688,626.64311 C 621.8571,570.39482 557.99296,579.82398 539.73871,593.90138 C 536.61562,595.48075 536.28384,596.57391 534.82285,599.49832 C 534.70452,599.85806 534.54438,600.20665 534.46785,600.57754 C 534.37837,601.01119 534.4085,601.46313 534.32761,601.89846 C 533.99179,603.70577 533.35633,605.50595 532.86509,607.27682 C 532.06715,609.74426 531.67417,612.24609 530.63048,614.63402 C 529.79328,617.37417 528.24853,619.83011 527.42459,622.56401 C 526.27394,624.79949 525.15079,626.97281 524.40697,629.37698 C 522.74616,632.22057 520.51053,634.59449 518.26046,636.96454 C 515.92433,639.82171 513.00827,642.18272 510.17761,644.54381 C 508.81363,646.09943 506.96847,647.08024 505.38882,648.37169 C 502.11118,651.05133 506.63854,647.63488 503.36536,650.06145 C 503.05863,650.34318 502.79298,650.67755 502.44516,650.90664 C 501.92244,651.25095 501.30747,651.43622 500.77606,651.76696 C 498.64182,653.09526 496.19559,655.00626 494.21117,656.55411 C 470.94542,670.76573 491.68897,658.12143 427.55702,694.89916 C 425.31402,696.18546 423.03574,697.43015 420.85881,698.82301 C 419.41363,699.30742 417.95984,699.85024 416.56859,700.47177 C 415.25084,701.06046 415.58926,701.2611 414.15881,701.58332 C 413.69625,701.68752 413.21554,701.68092 412.7439,701.72972 C 410.7634,702.1938 408.90385,703.07134 406.95761,703.64072 C 406.28164,703.83848 404.19626,704.21118 403.5068,704.34029 C 400.15194,705.49196 396.59459,705.52375 393.0925,705.65652 C 391.41333,705.60109 389.61241,705.8874 387.94467,705.58775 C 387.09604,705.43527 386.29616,705.07581 385.45536,704.88486 C 383.65901,704.4769 381.88459,704.30045 380.06133,704.07237 C 376.19399,703.98687 372.45943,702.99211 368.6194,702.6766 C 368.18147,702.65842 367.7374,702.69739 367.30562,702.62206 C 366.40618,702.46515 365.5577,702.07802 364.65929,701.9153 C 363.51769,701.70854 362.34561,701.6832 361.18999,701.64245 C 360.45955,701.49109 359.69894,701.767 358.96826,701.6463 C 358.50731,701.57015 358.08146,701.34951 357.62921,701.23226 C 356.35456,700.90181 355.05807,700.81148 353.75117,700.7141 C 351.78801,700.38218 349.73897,700.85212 347.78009,700.61941 C 346.81009,700.50418 345.87699,700.17655 344.91916,699.98495 C 343.42206,699.4031 341.04607,699.96351 339.62149,699.67117 C 339.19661,699.58397 338.81006,699.36446 338.40434,699.2111 C 337.18476,698.57844 335.74511,698.93503 334.47837,698.6541 C 333.6743,698.47578 332.9152,698.12661 332.11307,697.93978 C 331.73531,697.88437 331.34905,697.87062 330.97979,697.77354 C 330.52373,697.65364 330.10059,697.4297 329.64954,697.29212 C 328.85398,696.92112 327.95827,697.00546 327.13395,696.77437 C 326.26597,696.53103 325.43948,696.15397 324.57273,695.90627 C 321.98508,694.93146 319.50092,693.34436 316.85922,692.57825 C 316.00806,691.83982 314.90837,691.86206 313.92468,691.51985 C 312.83307,691.1401 312.2251,690.76217 311.04796,690.5697 C 310.68314,690.36156 310.31831,690.15343 309.95349,689.94529 C 309.67733,689.86978 309.38266,689.8436 309.12502,689.71876 C 307.64486,689.00155 307.46051,688.52253 305.73045,688.43701 C 305.06068,687.67447 304.12561,687.77709 303.30836,687.45589 C 302.18381,687.01391 302.13555,686.74801 300.83858,686.55396 C 300.24541,685.73828 299.04723,685.81207 298.32698,685.45987 C 297.41564,685.01423 297.1039,684.51738 296.08708,684.37699 C 295.56241,683.97524 295.18317,683.57952 294.55081,683.39337 C 294.37837,683.34261 294.17339,683.4237 294.01418,683.34027 C 293.14192,682.8832 292.99124,682.41141 292.00212,682.33019 C 290.56735,681.33862 289.11554,680.27452 287.48545,679.61836 C 286.30019,678.85167 284.98585,678.31509 283.83758,677.4905 C 280.94515,675.41341 284.30385,677.50656 282.23898,676.25258 C 280.81636,675.80284 279.2631,674.39667 278.25084,673.27297 C 276.85803,672.163 275.84731,670.5194 274.83092,669.05361 C 273.71727,667.92071 272.89244,666.4632 272.07162,665.09694 C 271.20423,663.29543 270.07297,661.65413 269.14927,659.88735 C 268.27545,658.50013 267.48887,657.03894 266.80066,655.54852 C 266.16093,653.86981 265.73921,652.12036 265.05182,650.4582 C 264.46884,648.73639 263.78563,647.049 263.24834,645.31178 C 262.74227,643.81211 262.1873,642.32746 261.73149,640.80977 C 261.00383,638.91201 260.17622,637.04788 259.36753,635.18057 C 258.42516,633.44413 258.13748,631.50486 257.66504,629.62295 C 257.18915,627.81927 256.91166,625.98761 256.39816,624.19581 C 256.03408,622.35413 255.41111,620.57585 255.07308,618.72714 C 254.3834,616.6681 254.05703,614.53308 253.66397,612.40877 C 253.25478,610.32781 252.9452,608.24288 252.38956,606.19599 C 251.80734,604.14333 251.59653,602.02237 251.47703,599.90064 C 251.3917,597.87466 251.39972,595.84629 251.40093,593.81896 C 251.40445,591.81541 251.40788,589.81187 251.4097,587.80832 C 251.51226,585.9439 251.23657,584.04246 251.49737,582.19025 C 251.00984,579.76376 250.89121,577.41105 251.13992,574.94895 C 251.43691,572.36284 251.24328,569.764 251.60407,567.18907 C 252.07622,564.6497 252.41717,562.08148 253.06268,559.57389 C 253.76533,557.0584 255.04919,554.74256 255.76385,552.24373 C 256.31212,551.15007 257.13619,550.18259 257.59899,549.04839 C 258.57832,546.64827 257.22572,549.01568 258.31881,547.22914 C 259.27448,546.16074 258.36398,547.34681 259.03053,545.69569 C 259.12158,545.47014 259.35128,545.31828 259.44035,545.09195 C 259.56941,544.76398 259.53038,544.38262 259.67392,544.06073 C 259.73506,543.92361 260.73772,542.92986 260.75652,542.91079 C 261.11185,542.3537 261.42851,541.76998 261.8225,541.23952 C 263.0276,539.61699 264.06595,538.62576 265.3475,537.08167 C 266.83597,535.28826 268.29895,533.49292 269.82913,531.73227 C 271.50184,529.23406 273.76993,527.18455 275.11349,524.48136 C 275.28336,523.81647 276.03092,523.68993 276.37841,523.20082 C 276.57082,522.93 276.59882,522.56811 276.77519,522.28658 C 276.90517,522.07909 277.16351,521.96974 277.28338,521.75624 C 278.19933,520.12483 276.99893,521.35985 278.10389,520.35956 C 280.63493,517.23447 283.31751,514.21927 285.96198,511.18097 C 288.21667,508.66943 290.23932,506.00407 292.66267,503.65337 C 295.40824,500.51943 298.53524,497.74234 301.11967,494.46511 C 301.9536,493.22412 303.18348,492.34654 304.08652,491.16652 C 304.35325,490.81799 304.5326,490.40662 304.80959,490.06618 C 305.24751,489.52795 305.80161,489.09491 306.27219,488.58499 C 308.9676,485.59053 311.82495,482.74395 314.73912,479.95994 C 317.18769,477.34985 319.60194,474.71375 322.47421,472.55973 C 344.54884,457.00809 368.50439,444.05877 392.45118,431.50408 C 395.75809,430.35061 391.87696,431.79533 394.88714,430.39931 C 395.28155,430.2164 395.72163,430.14378 396.11383,429.95618 C 396.47959,429.78123 396.77091,429.46397 397.14895,429.31745 C 402.0171,427.43076 395.09338,430.69127 399.63873,428.47334 C 400.95772,428.2235 401.92545,427.3676 403.20414,426.99907 C 403.61019,426.88204 404.04559,426.87382 404.44309,426.73041 C 404.79865,426.60213 405.10843,426.37148 405.4411,426.19201 C 405.81164,426.07758 406.18217,425.96315 406.5527,425.84872 C 410.07248,425.29383 413.33709,423.88453 416.7789,423.0553 C 418.14019,422.3924 419.65789,422.28381 421.09659,421.91304 C 422.47077,421.5589 423.74603,421.14844 425.15596,420.90764 C 426.12744,420.03801 427.59928,420.27019 428.68529,419.77929 C 429.00229,419.636 429.18862,419.29255 429.48083,419.10378 C 430.17714,418.65395 430.53792,418.6603 431.3317,418.50149 C 432.40499,418.05614 433.39534,417.54783 434.52933,417.25741 C 434.97506,417.14326 435.45529,417.14823 435.87934,416.96968 C 439.47387,415.45622 434.11657,416.97412 438.07498,415.96622 C 441.81012,413.86725 436.31033,416.8742 440.28665,414.98419 C 440.64081,414.81586 440.92799,414.52703 441.27943,414.35308 C 441.63964,414.17479 442.0514,414.11531 442.40975,413.93333 C 445.2707,412.48047 441.38145,414.04167 444.46652,412.87911 C 445.81258,411.84036 447.38892,411.21462 448.97706,410.64901 C 449.44087,410.48383 449.94832,410.43661 450.39039,410.21988 C 450.78951,410.02421 451.10643,409.69299 451.46445,409.42954 C 480.69686,393.02434 371.69288,458.43788 394.03256,442.51123 C 418.85871,429.66895 277.9239,502.59305 459.39453,404.78727 C 480.58667,393.36551 417.70941,428.88312 396.89988,440.98794 C 396.61016,441.15647 397.54632,440.78252 397.82771,440.60043 C 398.41483,440.2205 398.89163,439.68824 399.46895,439.29357 C 399.73072,439.03385 399.94926,438.72167 400.25426,438.51442 C 400.50693,438.34274 400.84967,438.3439 401.10755,438.18015 C 401.37455,438.01062 401.55005,437.72506 401.80088,437.5324 C 402.60116,436.91768 403.36402,436.28599 404.24198,435.78164 C 406.34664,434.547 408.40234,433.20448 410.48806,431.90253 C 410.85419,431.60894 411.19366,431.27859 411.58645,431.02176 C 411.91683,430.80574 412.31449,430.70695 412.64548,430.49187 C 413.89733,429.6784 414.94028,428.60712 416.22347,427.83767 C 416.58883,427.59556 416.93323,427.31839 417.31954,427.11135 C 417.6674,426.92492 418.07381,426.86074 418.41534,426.66295 C 419.71686,425.90921 420.68457,424.75046 422.08173,424.1785 C 534.12148,358.91954 482.51306,389.0666 425.94963,421.68042 C 425.18509,422.12125 427.44356,420.74041 428.19364,420.2754 C 430.28292,418.98017 432.32388,417.65625 434.46397,416.44544 C 437.88966,414.36572 440.92569,411.72117 444.28985,409.56285 C 446.6001,408.12874 448.69433,406.43395 451.13786,405.22427 C 454.62522,403.39979 449.90492,405.96488 453.18576,403.86813 C 453.47551,403.68296 453.83836,403.63167 454.12536,403.44225 C 454.89816,402.93222 455.82875,402.05953 456.47529,401.3937 C 459.00898,400.43492 455.59967,401.84906 457.96263,400.44156 C 458.18433,400.3095 458.49256,400.3796 458.71044,400.24134 C 458.94835,400.09037 459.04755,399.77955 459.27274,399.6102 C 459.69054,399.29601 460.18813,399.10184 460.61912,398.80601 C 461.29737,398.34046 461.93721,397.8213 462.59625,397.32895 C 465.80036,394.55565 468.79087,391.55258 471.9482,388.72646 C 473.2066,387.81874 474.17829,386.58319 475.31249,385.55081 C 476.0617,384.86886 476.97617,384.38671 477.73536,383.71589 C 478.21345,383.29344 478.63601,382.81203 479.08634,382.36011 C 481.16697,380.68079 482.80835,378.58308 484.80494,376.81695 C 490.18883,372.67275 482.3814,378.76848 487.72708,374.30104 C 488.43205,373.71188 489.2311,373.24003 489.92474,372.63757 C 491.80881,371.00115 493.5109,369.04838 495.20983,367.22285 C 496.91365,365.95174 498.05355,364.09045 499.6446,362.71367 C 500.67201,361.82462 501.76374,361.01198 502.79473,360.1271 C 505.70239,357.21224 509.05793,354.82897 512.10479,352.06687 C 515.72939,348.44906 519.7547,345.27806 523.48678,341.7735 C 526.52676,339.33438 529.03879,336.2248 532.25261,334.01179 C 533.22589,332.76134 534.66576,332.01189 535.79838,330.94153 C 538.38761,328.49465 534.81874,331.49999 537.52345,329.28249 C 539.66935,328.21324 537.25252,329.54835 539.1573,328.06314 C 539.38226,327.88773 539.69742,327.85224 539.91835,327.6718 C 540.21852,327.42663 540.40311,327.06141 540.69539,326.80689 C 542.44465,325.28359 540.67553,327.37992 542.20477,325.3956 C 544.12976,324.13099 541.74078,325.8348 543.49311,324.09442 C 543.6735,323.91526 543.94716,323.86056 544.15125,323.70895 C 544.90591,323.14834 545.44359,322.40528 546.2059,321.8436 C 547.675,320.79553 546.09672,322.09325 547.2805,320.42632 C 547.44299,320.19751 547.75399,320.10703 547.92473,319.88431 C 548.14998,319.59048 548.24712,319.21565 548.44734,318.90423 C 550.13089,316.28576 548.09498,319.89133 549.6052,317.13109 C 549.70039,316.71229 549.75471,316.28206 549.89078,315.8747 C 550.26971,314.74028 550.45706,314.99194 550.85071,313.84964 C 551.26873,312.63661 551.52581,311.3129 551.8868,310.07586 C 552.27407,308.5037 552.83742,306.96231 552.65232,305.34327 C 552.58619,303.99576 552.04371,302.81834 551.48921,301.60849 C 550.75204,300.11067 549.77087,298.82613 548.56343,297.69375 C 547.95831,296.72063 546.93804,296.31676 546.05952,295.63846 C 544.13992,294.15634 546.11291,295.37004 544.65198,294.51517 C 543.28013,293.1809 541.64654,292.32301 539.96256,291.46223 C 538.80618,291.12447 537.77285,290.54953 536.59928,290.25502 C 536.20593,290.15631 535.79056,290.14696 535.40578,290.01885 C 534.59363,289.74846 533.83632,289.33081 533.0283,289.04831 C 531.64181,288.69047 530.15099,289.11996 528.7628,288.89009 C 527.92413,288.75121 527.13454,288.39911 526.31109,288.18796 C 525.32658,288.18047 524.21299,287.77429 523.22706,287.96526 C 522.90677,288.0273 522.64557,288.26691 522.3363,288.37075 C 521.65998,288.59782 520.73507,288.71539 520.03996,288.82697 C 518.39591,288.74582 516.96794,289.42127 515.40023,289.72531 C 514.98509,289.80582 514.54094,289.76886 514.14707,289.92277 C 513.80743,290.05549 513.5552,290.34888 513.25926,290.56194 C 510.73993,291.35692 508.30108,292.33146 505.69975,292.86724 C 504.66581,293.76115 503.14409,293.56441 501.99165,294.07522 C 501.66219,294.22125 501.45645,294.56397 501.15047,294.75437 C 500.42081,295.20841 500.06863,295.20135 499.24493,295.3659 C 498.50595,296.23936 497.46598,295.98759 496.52626,296.30808 C 496.22827,296.40971 496.00965,296.67609 495.7209,296.8016 C 493.71664,297.6728 495.68417,296.41298 493.91373,297.66735 C 493.31056,298.19981 492.44634,297.9003 491.78832,298.22129 C 491.49518,298.36429 491.35734,298.7207 491.08798,298.90461 C 490.14672,299.54728 489.65526,299.17584 488.52773,299.94025 C 488.2144,300.02863 487.85654,300.02174 487.58773,300.2054 C 487.3295,300.38183 487.26999,300.7582 487.03256,300.96178 C 486.80853,301.15388 485.98642,301.50777 486.24164,301.35959 C 507.20694,289.20784 528.17224,277.05608 549.13754,264.90433 C 548.024,265.23189 548.56703,264.99571 547.51931,265.63729 C 547.14959,266.27018 546.35522,266.367 545.87412,266.84913 C 545.61634,267.10747 545.50234,267.48209 545.26285,267.75747 C 544.18106,269.00139 544.60032,268.0417 543.46913,269.41957 C 543.16711,269.78745 542.95413,270.22018 542.69663,270.62049 C 540.85309,272.63297 539.16789,274.78779 537.89244,277.20597 C 535.52405,281.06914 533.20122,284.95854 531.32485,289.08552 C 529.87902,292.39614 529.07598,295.91478 527.85501,299.30531 C 527.06767,301.19528 526.98874,303.24678 526.56259,305.22024 C 526.84967,307.2657 526.94023,309.38371 527.31659,311.41456 C 527.70833,313.5284 528.6055,315.57445 529.35859,317.57587 C 530.44554,320.18987 531.41973,322.834 532.72791,325.34543 C 533.66017,327.17903 534.7183,328.93755 535.79089,330.69112 C 536.81312,332.19872 537.64356,333.85714 538.78703,335.28021 C 538.9004,335.32598 539.033,335.33951 539.12715,335.41751 C 539.78132,335.95944 539.65085,336.13184 540.31927,336.54752 C 541.10685,337.03732 542.05686,337.40894 542.872,337.85729 C 545.38972,338.91051 547.80687,340.15217 550.49535,340.71856 C 553.0978,340.7796 555.4869,341.74808 557.98291,342.38971 C 560.41508,342.62832 562.62123,343.59363 565.06157,343.79487 C 565.68228,343.96942 566.34232,343.6761 566.96343,343.80308 C 567.37711,343.88765 567.74415,344.12873 568.14827,344.25106 C 569.21194,344.57303 570.34153,344.63452 571.44116,344.71766 C 571.80655,344.73043 572.17908,344.68294 572.53732,344.75597 C 573.36847,344.92542 574.1427,345.3197 574.97321,345.49226 C 576.03256,345.71237 577.09678,345.7258 578.17316,345.76264 C 578.91303,345.91466 579.68482,345.64168 580.42483,345.7671 C 580.88073,345.84436 581.29983,346.06887 581.74651,346.18842 C 582.92734,346.50446 584.13513,346.60311 585.3478,346.69992 C 587.48646,346.81205 589.6288,346.73497 591.76836,346.69387 C 594.47813,346.80381 597.19031,346.77918 599.90123,346.73422 C 601.39198,346.60607 602.91284,346.98208 604.40043,346.81091 C 604.88844,346.75476 605.34591,346.53736 605.82948,346.4509 C 606.71209,346.2931 608.3761,346.19949 609.24203,346.13755 C 611.02307,346.22402 612.66751,345.51305 614.40332,345.27526 C 615.00302,345.1931 615.61722,345.23514 616.21347,345.13083 C 617.34206,344.93338 618.42769,344.53939 619.5435,344.27923 C 620.52607,343.90149 621.61083,344.04184 622.61145,343.77118 C 623.02284,343.6599 623.37711,343.38828 623.78402,343.26159 C 625.0497,342.86753 626.47358,342.79805 627.78384,342.66881 C 628.96269,342.03976 630.36884,342.16495 631.60508,341.79156 C 631.98966,341.6754 632.30357,341.37537 632.69078,341.26831 C 633.14964,341.14145 633.64054,341.18429 634.10896,341.0993 C 634.69864,340.9923 635.2766,340.82854 635.86041,340.69317 C 638.00066,340.05101 640.03872,339.1532 642.12274,338.37373 C 643.96435,337.68492 645.8456,337.33136 647.66554,336.57513 C 649.65548,336.19476 651.15266,334.85736 652.81822,333.84467 C 657.04145,331.27688 651.30389,335.13182 655.22991,332.44 C 677.15243,319.46543 647.74468,336.87502 594.50528,367.61651 C 594.14488,367.82461 595.16407,367.10312 595.52561,366.897 C 595.82818,366.7245 596.19275,366.67383 596.48664,366.48692 C 597.06022,366.12211 597.52255,365.60408 598.07455,365.20738 C 599.94254,363.18123 597.70244,365.38623 599.60629,364.09314 C 599.86012,363.92073 599.99067,363.59899 600.25018,363.43527 C 600.4657,363.29931 600.77278,363.36497 600.98474,363.22352 C 601.52718,362.86153 601.84395,362.24208 602.28585,361.7625 C 604.60837,360.81312 601.75022,362.10749 603.91509,360.69332 C 604.15623,360.5358 604.48099,360.54327 604.72325,360.38749 C 605.04297,360.18191 605.27031,359.85695 605.57311,359.62718 C 610.41786,355.95079 603.73982,361.33081 608.73253,357.25323 C 611.19677,354.85038 613.93828,352.75918 616.55692,350.53093 C 616.88553,350.18232 617.18082,349.79899 617.54274,349.48511 C 618.58528,348.58098 619.74402,347.81865 620.80465,346.93582 C 622.25069,345.73221 623.57854,344.41763 625.00049,343.18748 C 627.67305,341.01258 630.39782,338.90258 632.94977,336.58612 C 635.61322,334.06838 638.16684,331.43809 640.73602,328.82517 C 642.76695,326.73558 644.9365,324.78691 646.9727,322.68964 C 650.03433,319.8349 652.67029,316.54648 655.58016,313.53216 C 658.90731,309.77635 662.67332,306.43241 665.96961,302.65457 C 668.17057,300.17108 670.53183,297.83826 672.89702,295.51318 C 676.32785,292.52654 679.48897,289.23338 682.43626,285.77273 C 683.60209,284.25715 685.09491,283.08014 686.34139,281.65608 L 755.08365,254.10128 C 752.50083,255.50375 755.64771,253.67801 752.95004,255.68857 C 748.37481,259.09848 755.02135,253.5474 750.12308,257.74283 C 746.77166,260.62369 743.90533,263.96352 741.08546,267.35339 C 738.55856,269.81733 735.98199,272.22846 733.37657,274.60926 C 729.66712,278.08271 726.42626,282.05687 722.69268,285.52123 C 720.06774,288.35212 717.24286,291.06035 715.15351,294.33042 C 713.07348,296.47254 711.16405,298.85563 708.774,300.64006 C 706.04903,303.32527 703.30703,305.99332 700.60407,308.70076 C 698.22622,311.15251 695.98441,313.74673 693.20929,315.78025 C 692.21558,316.5305 691.15767,317.19626 690.19183,317.98207 C 688.7141,319.18435 687.4992,320.72872 686.01561,321.91462 C 685.63937,322.21536 685.19858,322.42496 684.79007,322.68014 C 682.21443,325.1317 679.55196,327.49871 676.63635,329.54455 C 675.85457,330.32687 675.17195,331.20546 674.37719,331.9746 C 674.14163,332.20257 673.8054,332.31153 673.57788,332.54754 C 673.32594,332.80889 673.2302,333.20182 672.96021,333.44447 C 672.72306,333.6576 672.3496,333.66793 672.10443,333.87176 C 671.82951,334.10034 671.65927,334.43135 671.43669,334.71114 C 671.12735,334.79948 670.16604,335.02427 669.89962,335.28548 C 669.65709,335.52326 669.62125,335.92603 669.37288,336.15769 C 669.15671,336.35932 668.79718,336.34256 668.56718,336.52827 C 666.87363,337.89568 668.98514,336.96579 666.95527,337.6843 C 666.41143,338.13807 665.76333,338.46118 665.24006,338.93853 C 664.91286,339.23701 664.72414,339.66866 664.39107,339.96058 C 664.05895,340.25166 663.65081,340.44304 663.26941,340.66567 C 599.71633,377.76266 620.84422,366.37972 597.72431,378.81464 C 596.8844,379.17623 596.08877,379.6364 595.24498,379.98885 C 593.41217,380.75441 591.43245,381.04392 589.56882,381.70564 C 585.58643,382.70404 581.78824,384.37765 577.73988,385.16845 C 576.48181,385.50828 575.26439,386.00125 573.99041,386.27548 C 573.54753,386.37081 573.08404,386.32444 572.63672,386.39601 C 571.31262,386.60785 570.03533,387.13981 568.67205,387.1342 C 567.46286,387.43303 566.21482,387.87566 564.98428,388.06103 C 563.61371,388.2675 562.19885,388.25432 560.85086,388.66082 C 557.32352,389.20202 553.78718,389.63936 550.22286,389.85569 C 549.49878,389.93748 547.29892,390.20586 546.55563,390.21172 C 544.41828,390.22855 542.26415,389.98825 540.12071,390.17647 C 537.30712,390.1336 534.49396,390.13457 531.68048,390.18834 C 529.41218,390.06733 527.15069,389.84548 524.91839,389.41102 C 522.52515,388.98055 520.18602,388.87386 517.78721,388.56983 C 516.23628,388.27708 514.64941,387.72266 513.0759,387.59047 C 512.75991,387.56393 512.44027,387.635 512.12468,387.60402 C 511.71922,387.5642 511.32377,387.45407 510.92331,387.3791 C 508.67289,386.91615 506.45,386.72377 504.23668,386.1718 C 501.89002,385.45609 499.53287,384.91917 497.17525,384.25095 C 494.56281,383.56565 491.81949,383.38611 489.36052,382.18181 C 486.56695,380.93651 483.76776,379.70002 481.08146,378.23486 C 478.69023,376.9619 476.51659,375.38233 474.87436,373.19386 C 473.6822,371.54076 472.8263,369.68807 471.75937,367.95206 C 470.48558,365.94426 469.23325,363.92626 468.24699,361.75791 C 467.07569,358.81355 465.99447,355.84291 465.12915,352.79125 C 464.0015,348.29985 462.32016,343.98335 461.49396,339.4241 C 461.24718,338.71205 460.92073,338.02278 460.7536,337.28794 C 460.66255,336.88756 460.74139,336.46679 460.72804,336.0564 C 460.6728,334.35786 460.66438,332.65795 461.02009,330.98323 C 461.4225,329.3602 461.9332,327.88655 462.66229,326.37495 C 462.96393,325.74956 463.34016,325.1597 463.60933,324.51965 C 464.30581,322.86349 464.6784,321.08236 465.45601,319.45594 C 466.0899,317.75637 466.57463,316.00352 467.21205,314.30527 C 468.117,311.89425 469.55828,309.71301 470.51,307.32229 C 471.99768,304.81042 472.93592,301.98554 474.73733,299.64672 C 475.03788,299.35099 475.39494,299.10339 475.63896,298.75954 C 476.58203,297.43065 475.88302,297.66606 476.87981,296.49929 C 477.09519,296.24718 477.45302,296.13751 477.65217,295.87239 C 477.90444,295.53656 478.01891,295.11663 478.20229,294.73875 C 478.42474,294.46422 478.6472,294.1897 478.86965,293.91517 C 494.87687,270.68191 417.28965,328.63396 544.17387,254.79277 C 544.41998,254.64954 544.64589,254.45467 544.91955,254.37601 C 545.24815,254.28155 545.61298,254.3805 545.94121,254.28474 C 546.23968,254.19765 546.48741,253.98749 546.76051,253.83887 C 547.08424,253.75535 547.42565,253.72286 547.73171,253.58831 C 548.88156,253.08278 547.94232,253.07309 549.23117,252.73515 C 549.57084,252.64609 549.9439,252.72801 550.27847,252.62135 C 550.92695,252.4146 551.38846,251.78371 552.08692,251.67318 C 555.57479,250.87715 551.07393,251.97868 554.11977,251.01504 C 554.46478,250.90589 554.84292,250.91799 555.18232,250.79245 C 556.08538,250.45843 556.7657,249.64051 557.83178,249.71573 C 558.41887,249.39716 558.82266,249.12253 559.49865,248.99317 C 559.87248,248.92162 560.26618,248.99362 560.63744,248.90977 C 561.84129,248.63788 562.93424,247.81411 564.22265,247.82132 C 566.77117,246.86669 569.35224,246.03049 571.99057,245.36544 C 574.47613,245.43603 576.9608,244.75811 579.46329,244.74186 C 582.1301,244.62584 584.66032,245.25378 587.23842,245.89471 C 591.40662,246.61703 585.07744,245.57298 589.05178,246.06004 C 590.96204,246.29414 592.82469,246.96606 594.56744,247.7498 C 597.01858,248.81643 599.62652,249.57863 601.92879,250.98043 C 603.92397,252.10677 605.70855,253.5227 607.54687,254.88282 C 609.04003,256.25863 610.69658,257.46186 611.98955,259.04974 C 613.53106,260.78532 614.6815,262.7905 615.93549,264.73549 C 616.97691,266.5571 618.03535,268.48171 618.34814,270.57791 C 618.84369,273.20599 619.23141,275.41189 618.56718,278.08645 C 618.30054,279.39299 617.80994,280.65633 617.54292,281.94792 C 617.27857,283.2266 617.47964,284.54184 616.53819,285.60286 C 616.5051,285.79508 616.09386,288.22582 616.0309,288.42799 C 615.92736,288.7604 615.67728,289.03342 615.56599,289.36332 C 615.43106,289.76332 615.47877,290.21963 615.29783,290.60103 C 615.17356,290.863 614.81763,290.96085 614.68567,291.21904 C 614.49114,291.59966 614.46156,292.04404 614.34951,292.45654 C 613.89862,293.47529 613.31917,294.0938 612.72827,295.01468 C 612.54649,295.29799 612.45396,295.64641 612.21711,295.88559 C 610.17366,297.94913 612.78207,294.24476 610.83609,297.24787 C 608.91294,298.48347 611.06659,296.93848 609.34536,298.77931 C 609.12309,299.01702 608.76754,299.10111 608.54523,299.33879 C 608.28813,299.61368 608.19709,300.01903 607.93404,300.28823 C 605.43046,302.85032 608.82071,298.43242 606.32284,301.87621 C 605.7022,302.31053 604.98702,302.59989 604.37305,303.04359 C 603.06082,303.99191 602.11669,305.49107 600.59815,306.19641 C 599.12277,307.77636 598.07049,308.2472 596.41462,309.52833 C 594.41311,311.07687 592.64044,312.92718 590.61085,314.44434 C 587.91768,316.69361 585.54844,319.26283 582.90071,321.56123 C 582.38434,322.00947 581.8038,322.38011 581.28823,322.82927 C 580.7396,323.30723 580.23735,323.83595 579.7119,324.33929 C 576.78501,327.14423 574.04666,330.15361 570.6274,332.38639 C 569.76459,333.22901 568.97618,334.14871 568.0787,334.9543 C 566.56806,336.31025 567.26829,335.32953 565.64135,336.71635 C 564.61428,337.59183 563.8233,338.72264 562.75639,339.55693 C 560.79148,341.12809 558.79529,342.82197 557.16168,344.7493 C 556.64492,345.35897 556.31589,346.11693 555.77472,346.70503 C 555.38153,347.13232 554.85139,347.40942 554.38972,347.76162 C 554.06362,348.14257 553.73753,348.52353 553.41144,348.90448 C 552.52786,349.68024 551.45272,350.29989 550.59865,351.08564 C 550.22221,351.43197 549.96777,351.89629 549.59455,352.24609 C 545.89048,355.71781 550.87619,350.42616 547.07907,354.57691 C 546.6276,354.94437 546.13582,355.26722 545.72468,355.6793 C 544.65428,356.75216 544.89847,357.03266 543.75527,357.96229 C 543.37424,358.27213 542.89274,358.44027 542.50489,358.74152 C 541.61316,359.43416 540.93442,360.37601 540.01126,361.03416 C 536.74359,363.87338 533.3448,366.56194 530.29958,369.6379 C 529.89697,370.11662 529.48419,370.58697 529.09174,371.07405 C 528.83877,371.38804 528.66178,371.76844 528.36399,372.04029 C 528.16921,372.21812 527.84123,372.20276 527.65301,372.38752 C 527.40848,372.62754 527.36789,373.03137 527.11679,373.26451 C 526.89761,373.46801 526.53631,373.45484 526.30253,373.64138 C 526.02352,373.86403 525.84439,374.18891 525.61531,374.46268 C 524.80998,374.73744 523.58861,375.40973 522.93771,375.95675 C 522.61654,376.22667 522.43469,376.64066 522.10603,376.90141 C 517.92539,380.21806 524.24704,374.45957 520.07112,378.36729 C 517.83985,380.17825 515.08175,381.06494 512.84317,382.88233 C 511.28665,383.87899 509.60188,384.66966 508.07885,385.71549 C 506.10575,387.07038 504.30044,388.68329 502.21097,389.87528 C 498.91949,392.55033 501.70573,390.47703 498.1896,392.59735 C 492.18428,396.21873 499.88445,391.81989 493.96502,395.26801 C 329.29152,491.19187 483.67474,401.15384 491.03542,396.85921 C 490.77241,397.14709 490.56507,397.49814 490.24639,397.72284 C 489.93834,397.94005 489.52553,397.96192 489.20061,398.15297 C 488.85885,398.35392 488.59238,398.66363 488.26532,398.88771 C 487.93991,399.11065 487.55229,399.24089 487.24738,399.49113 C 486.90539,399.7718 486.69151,400.18947 486.34461,400.46404 C 486.04038,400.70483 485.66162,400.83236 485.32013,401.01652 C 484.05591,401.84842 482.63978,402.36633 481.41987,403.28527 C 481.05088,403.56322 480.79662,403.97801 480.41841,404.24328 C 480.04333,404.50635 479.59689,404.64906 479.18613,404.85195 C 478.82047,405.1373 478.45482,405.42266 478.08916,405.70801 C 477.7376,405.93258 477.36819,406.13137 477.0345,406.3817 C 476.04935,407.12073 476.28285,407.22238 475.22116,407.81819 C 474.91054,407.9925 474.53833,408.04564 474.23844,408.23784 C 473.93159,408.43451 473.69649,408.72531 473.42551,408.96905 C 470.46326,410.95786 474.70262,408.22928 471.69112,409.79709 C 471.40767,409.94466 471.20836,410.22025 470.93706,410.38913 C 470.67373,410.55306 470.34042,410.59719 470.09699,410.78945 C 469.80956,411.01647 469.67879,411.41135 469.37806,411.62045 C 469.0972,411.81573 468.73295,411.84826 468.41039,411.96216 C 467.87443,412.38356 467.22226,412.64664 466.70333,413.08885 C 466.41172,413.33735 466.21989,413.68336 465.97817,413.98062 C 444.5678,426.43118 423.15742,438.88175 401.74704,451.33232 C 382.15906,464.56329 484.88094,400.31287 463.18357,415.91647 C 439.03212,427.26179 417.91765,444.53068 393.70148,455.567 C 391.10073,456.30688 389.02065,458.11197 386.44629,458.93559 C 384.34466,460.07358 382.00626,460.75098 379.7614,461.54606 C 377.1638,462.82822 380.30018,461.40787 377.47135,462.2759 C 375.85863,462.77076 374.41101,463.85409 372.70615,464.12505 C 372.11991,464.43192 371.72258,464.698 371.04696,464.80338 C 370.67318,464.86169 370.28475,464.77252 369.9127,464.84097 C 368.73333,465.05796 367.6406,465.82154 366.38151,465.71677 C 363.71816,466.53794 361.01896,467.21392 358.34825,468.00985 C 354.94991,469.13014 351.41733,469.86141 348.2223,471.54171 C 346.87372,472.15802 347.583,471.89356 346.08892,472.32005 C 344.60283,472.92569 343.2116,473.81826 341.68816,474.35071 C 338.5001,475.60286 342.23699,474.02565 339.37922,475.56577 C 337.92053,476.35189 336.28597,476.85943 334.96133,477.89781 C 312.58308,491.0198 363.54677,461.13448 395.75107,442.50599 C 396.52809,442.05653 394.35301,443.64609 393.57118,444.08713 C 393.16036,444.31888 392.70118,444.46015 392.29867,444.70604 C 391.85932,444.97444 391.47036,445.31772 391.05621,445.62355 C 388.031,447.52069 384.74608,449.1432 382.39206,451.91968 C 376.07711,458.55808 385.76117,448.48151 379.26805,454.89424 C 378.18172,455.96713 377.84896,456.68917 376.75441,457.71659 C 376.35524,458.09127 375.86667,458.3619 375.46504,458.73394 C 375.13127,459.04313 374.85937,459.41304 374.55654,459.75259 C 374.05321,460.36184 373.64838,461.05882 373.07831,461.60613 C 372.77486,461.89746 372.35346,462.04653 372.05044,462.3383 C 370.85313,463.49115 370.20026,465.16051 368.74639,466.07779 C 365.76643,468.94954 363.43485,472.44412 360.35715,475.22226 C 359.10855,476.78974 359.44082,476.50154 358.0809,477.76152 C 357.74181,478.07569 357.3469,478.33242 357.04091,478.67891 C 356.66375,479.10599 356.40947,479.63028 356.0443,480.06767 C 355.25795,481.00951 354.26705,481.76775 353.51093,482.73802 C 352.55188,483.79445 351.64751,484.90105 350.66007,485.93099 C 350.1654,486.44694 349.59351,486.88605 349.1085,487.41108 C 347.03385,489.65694 348.77684,488.01058 347.14212,490.15503 C 346.94181,490.41781 346.67159,490.61905 346.43632,490.85105 C 345.07517,493.46945 347.02051,490.12665 345.37469,491.88898 C 345.15401,492.12528 345.15721,492.50883 344.96264,492.76704 C 344.79257,492.99274 344.46131,493.06808 344.30754,493.30517 C 344.08441,493.64921 344.01475,494.07126 343.86836,494.4543 C 343.64473,494.77229 343.4211,495.09028 343.19747,495.40827 C 341.84667,496.43581 341.63762,497.28636 340.69259,498.64321 C 339.60283,500.20785 338.28877,501.65778 336.97387,503.03028 C 335.73593,504.71644 335.41393,505.24468 334.0025,506.80425 C 333.45125,507.41334 332.82208,507.95022 332.2861,508.57279 C 331.07224,509.98276 330.09822,511.61589 328.69957,512.87155 C 328.6137,513.11355 328.25575,514.27213 327.99067,514.50067 C 327.8208,514.64714 327.5041,514.52615 327.34264,514.68184 C 327.1373,514.87985 327.16922,515.23867 326.99284,515.46286 C 325.94435,516.79552 326.75298,514.48825 326.16549,516.89754 C 326.02529,517.17252 325.88508,517.44749 325.74487,517.72246 C 325.53493,517.88186 325.25699,517.97855 325.11504,518.20067 C 324.9195,518.50664 324.92519,518.9047 324.77739,519.23638 C 324.65331,519.51482 324.42582,519.73951 324.30464,520.01923 C 323.12794,522.73539 324.83148,519.58731 323.44484,522.02586 C 322.20444,523.18305 323.11607,522.14726 322.23075,523.87409 C 321.48086,525.33676 320.58654,526.74297 320.08407,528.32384 C 320.01988,528.44474 319.20223,529.96591 319.14607,530.14152 C 319.0219,530.52988 319.00754,530.94543 318.91947,531.34353 C 318.66825,532.4791 318.09958,533.46906 318.20469,534.66635 C 318.01133,535.61962 317.99093,535.85836 317.69428,536.77962 C 317.58917,537.10605 317.39232,537.40695 317.3418,537.74614 C 317.14612,539.05999 317.46116,540.47439 317.23032,541.79406 C 317.20614,542.8426 317.22649,543.9739 316.99589,545.00665 C 316.95278,545.19973 316.7903,545.3639 316.78569,545.56168 C 316.77991,545.80931 317.16861,547.55133 317.20457,547.7195 C 317.69728,549.82692 317.50948,551.96576 317.52999,554.12313 C 317.52951,556.12846 317.52883,558.1338 317.5247,560.13913 C 317.52027,562.08916 317.5118,564.03919 317.51158,565.98922 C 317.51786,567.63545 317.49256,569.29403 317.75414,570.92439 C 318.19845,573.07614 318.74262,575.17592 318.92691,577.37379 C 319.12273,578.14188 319.40024,578.88923 319.56472,579.66463 C 319.81458,580.8425 319.70852,582.1137 320.23738,583.24056 C 320.56733,584.20091 320.68847,585.07844 320.9511,586.04431 C 321.16038,586.81401 321.36718,587.31024 321.65166,588.07703 C 321.71617,588.303 321.72003,588.54203 321.75421,588.77452 C 322.16813,590.59265 322.7597,592.33847 322.92147,594.20757 C 323.11336,594.89031 323.38959,595.54865 323.56032,596.23699 C 323.77372,597.09735 323.64719,598.04723 324.1782,598.83686 C 324.97831,600.76413 325.50384,602.80487 326.46147,604.67918 C 327.29897,606.3801 327.94166,608.1408 328.63792,609.90141 C 328.87662,611.40177 329.6675,612.71093 329.94418,614.20109 C 330.57795,615.81628 331.17472,617.45104 331.67974,619.09987 C 332.18551,620.52166 333.07764,621.79779 333.74104,623.14816 C 334.41863,624.69394 335.43012,626.07859 336.26233,627.54192 C 337.13265,628.77632 337.88373,630.08784 338.86916,631.23858 C 339.68461,632.31445 340.49554,633.28518 341.58131,634.0907 C 342.34851,634.41309 341.22403,633.90685 342.54294,634.77297 C 343.32286,635.28514 344.28347,635.61299 344.96248,636.31426 C 346.33186,637.3981 347.9696,638.08743 349.52769,638.86848 C 350.90362,639.68578 352.4114,640.59545 353.91912,641.03396 C 353.95939,641.05918 355.34242,641.93645 355.50472,642.00083 C 355.63202,642.05132 355.78938,641.97295 355.91464,642.02832 C 356.59008,642.32689 357.12527,643.0337 357.91533,642.99531 C 358.06138,643.08033 359.2606,643.79664 359.51261,643.88219 C 359.65861,643.93175 359.82932,643.85639 359.97442,643.90856 C 360.74224,644.18466 361.37288,644.8352 362.24268,644.78245 C 362.36898,644.83898 363.99396,645.57227 364.18262,645.63484 C 364.41527,645.71201 364.67294,645.69814 364.90286,645.78309 C 365.65361,646.06046 366.2878,646.66421 367.13364,646.63686 C 368.83001,647.48539 370.48182,648.4797 372.36077,648.8193 C 374.39587,649.70941 376.45659,650.48701 378.45975,651.44771 C 380.72562,652.66123 383.09039,653.66113 385.64232,654.10216 C 388.00626,654.78893 390.44837,655.16821 392.86265,655.62046 C 397.10964,656.34167 391.24135,655.41653 395.06062,655.80679 C 396.43063,655.94678 397.73505,656.5796 399.12801,656.59143 C 401.22758,656.25763 403.32319,657.20634 405.4109,657.38896 C 408.52415,657.66521 404.56693,657.37032 407.64807,657.42122 C 409.7381,657.45575 411.81984,657.86302 413.90244,657.99855 C 416.47622,658.35357 419.00201,658.52826 421.56663,658.84013 C 424.03567,659.31285 426.47198,659.90034 428.96363,660.19466 C 432.42125,660.94674 435.88648,661.60481 439.39329,662.09471 C 441.04345,662.30553 443.09268,662.62527 444.75778,662.59621 C 447.26209,662.5525 449.76948,661.9836 452.27543,661.89104 C 455.56871,661.44147 458.72069,660.45958 461.91637,659.57816 C 464.98723,658.51499 468.03089,657.37654 471.11062,656.33771 C 473.35249,654.85563 475.96702,654.10577 478.1214,652.47736 C 479.63225,651.71172 481.09459,650.87788 482.60355,650.10702 C 483.21855,649.79284 485.03787,648.80226 484.4401,649.1481 C 426.77304,682.51093 403.51747,695.23587 426.09471,682.86301 C 426.72229,682.60244 427.39008,682.42298 427.97747,682.08131 C 428.50934,681.77192 428.93168,681.30395 429.41956,680.929 C 430.37536,680.19445 431.45194,679.62126 432.37979,678.8517 C 432.7845,678.51603 433.03909,678.01486 433.46588,677.70773 C 433.80103,677.46654 434.23155,677.39831 434.61439,677.2436 C 435.3493,676.73056 436.1657,676.34083 436.89764,675.82357 C 438.65142,674.58419 440.12716,672.91 442.12629,672.00318 C 443.62262,670.76255 445.26112,669.64584 446.72579,668.3766 C 447.93123,667.33199 448.96022,666.08437 450.39235,665.30082 C 451.21413,664.42764 451.96552,663.48502 452.84078,662.66545 C 454.09807,661.48817 455.59048,660.54572 456.44928,658.98411 C 456.71841,658.84831 457.05246,658.79846 457.25667,658.57672 C 457.50477,658.30731 457.53796,657.89625 457.73524,657.58769 C 457.92368,657.29298 458.24506,657.09101 458.4054,656.78011 C 459.01659,655.59493 459.09702,654.10834 460.09813,653.10164 C 461.24389,651.57829 461.59124,649.79963 462.43613,648.10135 C 462.62105,647.72966 462.88728,647.40166 463.06622,647.02705 C 463.24715,646.64828 463.36335,646.24185 463.51191,645.84925 C 463.86355,644.7552 464.27111,643.64623 464.81177,642.6269 C 464.98589,642.29861 465.27383,642.03167 465.40883,641.68546 C 465.7702,640.75876 465.70155,639.69929 466.15319,638.79579 C 466.57405,637.57434 466.96912,636.32076 467.29491,635.07083 C 467.40022,634.6668 467.4165,634.24108 467.54204,633.84287 C 467.65101,633.49721 467.90941,633.20635 467.99385,632.8539 C 468.11515,632.34754 468.0988,631.81782 468.15127,631.29979 C 468.35657,629.6252 468.80901,628.30238 469.30693,626.70611 C 469.91114,624.7691 470.19913,622.77625 471.64731,621.21885 C 472.17397,620.78558 472.72339,620.37857 473.2273,619.91904 C 473.80728,619.39013 474.21907,618.65541 474.8953,618.25687 C 511.33034,596.78391 518.46561,586.41676 545.76752,579.16067 C 548.15684,578.51602 550.53539,577.77624 552.948,577.22314 C 554.9667,576.76035 555.11579,576.88428 557.27462,576.50426 C 558.1926,576.34267 559.10231,576.1372 560.01615,575.95367 C 565.01341,574.94952 570.00218,573.86492 575.06181,573.22818 C 578.21033,572.85748 581.37293,572.72201 584.50034,572.17054 C 587.71953,571.65341 590.98217,571.6324 594.20832,571.1321 C 597.33251,570.99069 600.47371,571.11552 603.57026,570.53497 C 604.87339,570.3675 606.18757,570.10879 607.49529,569.99444 C 609.24689,569.84126 608.55116,570.01576 610.39668,570.097 C 610.85702,570.11726 611.31818,570.08585 611.77893,570.08028 C 614.53633,570.11209 617.29366,570.09867 620.04974,570.21088 C 623.33805,570.41163 626.62387,570.66129 629.87667,571.207 C 633.19233,571.83162 636.55391,572.13559 639.83679,572.95226 C 640.50797,573.08452 643.06952,573.61368 643.80755,573.66738 C 644.37278,573.7085 644.94237,573.57311 645.50707,573.62094 C 646.69765,573.72179 647.83023,574.38296 648.97131,574.67231 C 651.42118,575.57383 653.93604,576.29676 656.45229,576.98309 C 658.755,577.72646 661.08197,578.37052 663.36996,579.15933 C 666.44666,580.19949 669.57569,581.13445 672.76219,581.77799 C 674.14393,581.98566 676.59132,582.32207 677.98984,581.80268 C 678.45659,581.62933 679.52238,580.62075 680.18013,580.61213 C 680.75211,580.37453 681.16673,580.15171 681.80234,580.10151 C 682.15515,580.07364 682.5141,580.20306 682.86317,580.14476 C 683.82437,579.98422 684.65064,579.17408 685.55814,578.87264 C 686.94978,578.24456 686.21935,578.51869 687.75472,578.06449 C 689.28184,577.43382 690.73167,576.51466 692.23006,575.82927 C 692.93752,575.4507 693.59202,574.9751 694.31236,574.62166 C 697.35462,573.12895 693.55595,575.14314 696.40623,574.0974 C 697.01994,573.87223 697.40854,573.20722 698.06801,573.05597 C 700.6992,572.23498 697.64546,573.27713 699.89847,572.25063 C 700.20498,572.11098 700.55622,572.08295 700.8575,571.93237 C 701.79397,571.46433 702.44994,570.67021 703.62659,570.722 C 706.61813,569.2634 709.68019,567.93237 712.54985,566.22025 C 734.12256,553.96466 742.53896,549.17474 653.53239,600.52741 C 653.0775,600.78987 654.35326,599.87119 654.78177,599.56756 C 655.22109,599.25628 655.67007,598.95732 656.13398,598.68403 C 656.61057,598.40328 657.11153,598.16613 657.60031,597.90718 C 658.12037,597.59609 658.64044,597.28499 659.1605,596.97389 C 662.439,594.47983 666.15486,592.60556 669.41052,590.07569 C 672.33412,588.3108 675.30203,586.33754 677.81268,584.00642 C 678.43183,583.43153 678.97039,582.77441 679.58135,582.19082 C 680.22532,581.57569 680.91055,581.00526 681.57516,580.41248 C 683.20462,578.94059 684.63789,577.42808 686.07443,575.77331 C 686.60011,575.16778 686.97285,574.42632 687.56343,573.88391 C 687.79574,573.67055 688.11732,573.58196 688.39427,573.43099 C 688.5852,573.16457 688.77614,572.89816 688.96708,572.63174 C 689.2116,572.49837 689.51024,572.43492 689.70066,572.23164 C 689.94186,571.97415 689.99248,571.58143 690.21068,571.30418 C 690.40638,571.05551 690.74762,570.94038 690.92375,570.67749 C 691.1488,570.34159 691.22976,569.92899 691.38277,569.55473 C 691.57328,569.27421 691.76379,568.99369 691.9543,568.71317 C 693.1126,567.54322 692.2651,568.58814 693.07594,566.78357 C 694.44227,563.74277 692.92391,567.4311 694.52596,564.57151 C 695.02134,563.68729 695.14569,562.62371 695.76771,561.79603 C 696.94734,559.58791 696.96388,556.84958 698.68227,554.96951 C 699.30063,553.17366 698.70237,553.89854 700.06678,553.11657 C 721.55942,540.79884 743.04086,528.46158 764.52766,516.13366 C 765.49092,515.581 765.56476,515.44846 766.6834,515.17932 C 767.04881,515.09141 767.42722,515.07088 767.79912,515.01666 C 770.31526,513.8 773.0273,513.08582 775.74314,512.44996 C 779.45076,511.95205 783.18343,510.58239 786.90506,511.78225 C 789.47426,512.23435 792.02059,512.45765 794.58493,512.89031 C 797.42571,513.47353 800.29205,513.84631 803.09204,514.58657 C 803.86228,514.81118 804.66818,514.90987 805.42737,515.16938 C 806.83383,515.65016 808.00226,516.64841 809.42084,517.10021 C 812.97962,518.95336 816.47437,520.92764 820.07811,522.69161 C 824.94402,524.80769 829.82829,526.8845 834.73642,528.90201 C 838.13399,530.14071 841.24906,531.89154 844.43796,533.58788 C 847.7258,535.4291 850.72669,537.74592 854.06489,539.50904 C 856.4929,540.86784 858.9466,542.27719 861.60016,543.1634 C 862.06355,543.31816 862.57118,543.30364 863.03793,543.44799 C 863.87198,543.70593 864.59916,544.25246 865.46563,544.43077 C 867.18675,545.26849 868.9516,545.85193 870.62212,546.77845 C 872.41311,547.18965 873.95659,548.45322 875.81422,548.70066 C 877.56685,549.47685 879.50469,549.92839 881.41757,550.04973 C 883.56934,550.41699 885.576,550.12126 887.70724,550.66323 C 890.03211,551.10771 890.6691,551.19866 892.86682,550.26244 C 894.09886,549.71011 893.67603,549.98663 894.75359,549.15139 C 895.02585,548.94037 895.85669,548.33122 895.55778,548.50241 C 788.21027,609.98194 814.65859,595.97798 835.63862,582.98296 C 836.09627,582.84417 836.58386,582.7805 837.01159,582.56657 C 837.42135,582.36164 837.73145,581.9979 838.11357,581.74514 C 839.39932,580.89468 840.60427,579.94709 841.93214,579.1512 C 842.43209,578.54408 842.79681,577.81834 843.3723,577.28227 C 843.60315,577.06724 843.97154,577.04183 844.20133,576.82566 C 844.79846,576.26396 844.75129,575.64388 845.23256,575.00402 C 845.42653,574.74614 845.71969,574.58068 845.96325,574.36901 C 846.18924,573.86823 846.65575,572.58522 847.21911,572.25315 C 868.5593,559.6743 891.7621,549.91245 911.45708,534.88783 C 930.56047,520.31452 827.31515,581.21929 849.00826,570.88828 C 962.71649,516.73644 889.37511,542.29428 914.58618,533.53393 C 918.2397,531.28158 912.46501,534.76568 916.43913,532.6343 C 917.36273,532.13896 917.03483,531.92145 918.08617,531.58853 C 918.45477,531.47181 918.86214,531.52629 919.23366,531.41923 C 919.57657,531.32041 919.88362,531.12433 920.20859,530.97688 C 920.62919,530.63821 921.04442,530.2347 921.58644,530.08316 C 921.90998,529.9927 922.26979,530.08485 922.589,529.98011 C 923.57583,529.65633 924.29792,528.70069 925.48509,528.89017 C 926.14864,528.53444 926.86828,528.2742 927.48904,527.84817 C 927.72972,527.68299 928.3678,527.09013 928.11452,527.23524 C 907.11335,539.26766 844.47882,575.99737 865.22112,563.52399 C 868.32623,561.65673 1031.6584,467.49015 866.51577,562.71961 C 888.01665,550.41863 909.01221,537.18898 931.0184,525.81668 C 952.58143,514.6734 888.88107,549.92062 867.84649,562.03192 C 867.63351,562.15455 868.32968,561.91171 868.54263,561.78902 C 890.00455,549.42442 911.25545,536.69044 932.85987,524.57654 C 953.78859,512.84151 847.23312,572.28465 870.59056,560.68798 C 892.00047,548.2303 915.90236,539.30525 934.8203,523.31494 C 953.29069,507.70293 850.13521,569.96633 871.95448,559.53513 C 894.29741,548.85359 913.72685,532.53272 936.3958,522.56174 C 958.49626,512.84081 894.54076,546.64243 873.66992,558.78059 C 873.39681,558.93943 874.29797,558.65712 874.57928,558.51329 C 874.85966,558.36993 875.07682,558.12713 875.32558,557.93406 C 877.81979,556.72276 874.34959,558.55672 876.7937,556.69465 C 877.04229,556.50526 877.40943,556.53764 877.67332,556.37023 C 878.3729,555.92643 878.74842,555.04246 879.67947,554.93347 C 880.81825,553.06185 879.44737,554.91051 880.94571,553.87719 C 881.19378,553.70611 881.2579,553.31966 881.52767,553.1854 C 881.78403,553.05782 882.10537,553.21541 882.38635,553.16023 C 882.857,553.06779 883.24069,552.66477 883.76227,552.73914 C 885.58746,549.81228 882.81838,553.96598 884.88249,551.71977 C 885.10171,551.48121 885.12171,551.11287 885.29824,550.8412 C 885.46152,550.58992 885.76268,550.43652 885.892,550.1662 C 886.25353,549.41051 886.12535,548.47465 886.64543,547.76866 C 887.91164,545.43642 888.0672,542.77207 889.36137,540.45458 C 890.47889,536.782 891.6111,533.11646 892.54163,529.39082 C 893.40057,525.32737 894.69808,521.417 895.57828,517.35967 C 895.74043,516.80364 896.66114,513.67886 896.80791,513.05243 C 897.31469,510.88935 897.43626,508.61951 898.31882,506.55283 C 898.86632,503.61714 899.54136,500.69532 899.74479,497.71089 C 899.8545,497.06025 899.92869,496.42949 900.15225,495.80453 C 900.23399,495.57605 900.42321,495.38732 900.46887,495.14898 C 900.66905,494.10427 900.34319,492.95627 900.56154,491.90618 C 900.64235,490.84848 900.71726,489.78898 900.95356,488.75127 C 901.07606,488.21325 901.41533,487.73734 901.51846,487.19528 C 901.58626,486.83896 901.52989,486.46995 901.53561,486.10728 C 901.58779,483.50082 901.68272,480.89504 901.69067,478.2879 C 901.63668,475.64136 901.56282,472.99464 901.61731,470.34768 C 901.61211,467.88521 901.617,465.41551 901.41764,462.96 C 901.18253,460.17886 900.54178,457.4638 900.53506,454.66989 C 900.29636,452.37078 900.09559,450.07006 899.56064,447.81262 C 899.60861,445.26022 899.63846,442.70909 899.57086,440.15694 C 899.50887,437.50434 899.68769,434.85418 899.72596,432.20195 C 899.74958,429.23534 899.87847,426.26802 899.93905,423.30238 C 900.01396,422.77379 900.24333,422.264 900.24435,421.73013 C 900.2472,420.23843 899.29398,418.84384 899.51069,417.33555 C 899.49717,415.59256 899.49829,413.83225 899.09991,412.12472 C 898.90721,411.39027 898.63126,410.6773 898.47419,409.93442 C 898.19196,408.59952 898.30963,407.15482 897.80188,405.85331 C 897.00194,402.16332 896.65149,398.37519 895.4837,394.75693 C 894.61809,391.98307 893.34725,389.35665 893.00266,386.43413 C 892.29509,383.9933 891.43801,381.60485 890.68946,379.17946 C 889.91341,376.84337 889.32045,374.44999 888.53011,372.11754 C 887.54881,369.74701 886.96326,367.24906 885.92057,364.90529 C 885.10691,362.54959 884.25074,360.21371 883.53472,357.82594 C 882.57332,355.41363 881.95438,352.88792 880.93689,350.49561 C 879.9321,347.16653 878.8724,343.86227 878.24668,340.43103 C 876.82275,334.92456 875.5868,329.36344 873.2088,324.16365 C 872.58574,320.64249 871.50256,317.23939 870.63927,313.77413 C 870.0731,311.8475 869.51719,309.86198 868.77521,307.99447 C 868.54208,307.4077 868.19566,306.86974 867.96924,306.28035 C 867.63521,305.41088 867.61837,304.43864 867.19288,303.59609 C 866.58324,300.63613 865.86218,297.69089 865.07135,294.77687 C 864.87552,293.86837 864.5925,292.97897 864.42297,292.06519 C 864.10943,290.37518 864.15371,288.60116 863.53027,286.96379 C 862.77047,284.42987 862.24383,281.86913 861.66028,279.29569 C 860.80343,276.45216 860.29376,273.50867 859.4393,270.66028 C 858.86031,268.95119 858.4218,267.19251 857.75142,265.51557 C 857.50206,264.8918 857.20987,264.28601 856.93909,263.67124 C 856.70379,263.21339 856.43179,262.77261 856.23317,262.2977 C 856.10539,261.99217 856.05413,261.66 855.96461,261.34115 C 854.84801,258.12697 853.88255,254.853 852.27487,251.83436 C 850.49347,249.34034 849.09519,246.58054 847.84756,243.78565 C 845.76862,239.56047 843.95962,235.16423 841.16988,231.33403 C 839.94139,229.35343 838.7933,227.24773 837.3715,225.39617 C 836.89539,224.77615 836.30964,224.2457 835.83357,223.62564 C 835.82815,223.61858 834.07643,220.88743 834.04833,220.84362 C 831.94556,217.42653 829.82351,213.98749 827.0976,211.0198 C 825.12985,209.04459 823.22701,207.33017 821.87618,204.84776 C 820.58474,202.88224 819.03263,201.07456 817.20984,199.58221 C 814.33434,197.3889 811.09307,195.74495 807.96013,193.95772 C 804.23321,191.82971 800.50166,189.69313 796.93593,187.30211 C 792.63348,184.27302 788.48157,181.04586 784.25595,177.91299 C 782.58768,176.78739 780.84901,175.76595 779.20853,174.60021 C 776.57469,172.72859 774.30621,170.35328 771.626,168.53746 C 770.9277,168.04411 770.19864,167.59166 769.53112,167.0574 C 767.06152,165.0808 765.09042,162.46686 762.49603,160.62129 C 759.50848,158.19254 756.24732,156.12178 753.68791,153.21125 C 751.68117,151.21583 749.66987,149.2247 747.61953,147.27391 C 744.67787,144.4772 741.7028,141.71512 738.81275,138.86463 C 732.70536,133.20059 740.80837,140.6417 734.46226,135.05545 C 731.90761,132.80669 729.62924,130.19795 726.71056,128.39387 C 724.7273,126.47448 722.70712,124.56201 721.13986,122.27288 C 718.78252,119.04928 716.15281,116.02884 713.59537,112.96452 C 710.17863,108.83462 714.4107,113.84316 710.59285,109.68028 C 708.79754,107.72273 707.18759,105.5692 705.08612,103.90281 C 702.46257,100.74459 699.68976,97.70457 696.52162,95.077668 C 694.11341,93.228408 692.0894,90.983434 689.69446,89.124317 C 688.14586,87.438481 686.54622,85.797784 684.92553,84.181076 C 683.91098,83.227026 683.24675,82.566769 682.16764,81.691297 C 681.19441,80.901713 680.10071,80.268765 679.12814,79.478358 C 678.5895,79.040607 678.21395,78.423336 677.62985,78.032344 C 676.20144,76.723785 674.83353,75.353258 673.51544,73.935126 C 672.44006,72.844478 671.38899,71.734296 670.43254,70.533699 C 668.62894,68.3228 666.91266,66.015515 664.77583,64.10699 C 663.46328,62.977057 662.08063,61.801919 660.57728,60.926484 C 660.15014,60.677751 659.65901,60.553683 659.22733,60.312924 C 658.50674,59.911036 657.92455,59.284489 657.14296,58.97791 C 653.91529,57.099532 650.47951,55.576662 647.01997,54.182194 C 645.59831,53.720651 644.06362,53.447608 642.66713,52.937356 C 641.51042,52.51472 641.95616,52.484228 640.83167,52.138786 C 640.57608,52.060267 640.30737,52.033502 640.04522,51.98086 C 637.58616,51.087972 635.03258,50.262316 632.45124,49.875395 C 629.77369,49.606704 627.32723,48.369882 624.64739,48.094451 C 620.7302,47.332942 625.89329,48.280862 622.15637,47.766375 C 620.46866,47.534018 618.82443,46.885464 617.09189,47.032141 C 614.58329,46.609191 612.10467,46.112638 609.56406,46.027713 C 607.83751,45.756159 606.08739,45.285098 604.33917,45.188382 C 603.92023,45.165205 603.49938,45.230988 603.08054,45.205965 C 602.6291,45.178995 602.18346,45.090517 601.73491,45.032794 C 598.65962,44.602465 595.60579,44.107524 592.48965,44.151321 C 589.49835,43.921364 586.47935,43.328946 583.48804,43.577686 C 580.7156,43.604279 577.9427,43.554705 575.17024,43.605028 C 572.49893,43.578185 569.82738,43.594283 567.15608,43.602756 C 564.43017,43.572693 561.70398,43.58443 558.97801,43.586641 C 556.13331,43.553245 553.28935,43.599205 550.44468,43.60318 C 547.98775,43.625954 545.52932,43.688765 543.08815,43.325463 C 540.45191,42.955974 537.89677,42.319007 535.38011,41.446265 C 532.75387,40.881689 530.39459,39.515289 527.73899,39.027632 C 527.02695,38.9656 526.30269,39.013259 525.5995,38.885256 C 524.32231,38.652766 523.1897,37.868716 521.90432,37.656994 C 520.83832,37.648207 519.89233,37.282023 518.86007,37.036946 C 516.37942,36.447993 518.96616,37.063148 516.54002,36.688906 C 516.07278,36.616832 515.61504,36.492808 515.15255,36.394759 C 512.40273,35.786153 509.61131,35.494334 506.85053,34.923043 C 502.92656,34.551305 499.08677,33.605923 495.15508,33.29614 C 492.67243,33.840255 490.21919,33.556214 487.68834,33.562946 C 485.06082,33.556719 482.43216,33.563155 479.80685,33.681876 C 477.75164,33.836586 475.67744,33.949907 473.68912,34.542578 C 473.05985,34.742904 472.46109,35.041472 471.81955,35.198104 C 470.49701,35.520998 469.07735,34.859703 467.79352,35.61277 C 466.70668,35.918682 465.60523,36.299828 464.48874,36.482426 C 464.05623,36.553161 463.60716,36.51489 463.18083,36.616415 C 462.50321,36.777779 461.92921,37.258685 461.23076,37.367481 C 457.39249,38.388921 463.30554,36.885172 459.05849,37.711882 C 457.7121,37.973963 456.50925,38.929604 455.05481,38.712859 C 454.13771,39.044677 453.18393,39.483883 452.21444,39.636992 C 451.83079,39.697582 451.43298,39.638448 451.05164,39.712203 C 450.41227,39.835863 449.85404,40.254504 449.21045,40.36551 C 445.43923,41.352795 451.19328,39.914161 447.0155,40.712914 C 445.60242,40.983083 444.31447,41.914659 442.80188,41.745968 C 441.72556,42.095342 440.63456,42.529484 439.52223,42.750285 C 439.08893,42.836295 438.63695,42.816683 438.20838,42.923789 C 437.84338,43.015005 437.50917,43.201758 437.15956,43.340742 C 436.81936,43.42019 436.47916,43.499638 436.13896,43.579085 C 435.74599,43.58685 435.3494,43.548506 434.96007,43.602378 C 433.98532,43.737255 433.11295,44.24459 432.10417,44.277749 C 431.71672,44.290485 431.33143,44.16757 430.94447,44.190712 C 430.65797,44.207845 430.38718,44.3283 430.10854,44.397094 C 429.02339,44.71903 427.8859,45.19624 426.7284,45.054288 C 426.34537,45.007315 425.98512,44.82678 425.60078,44.792108 C 425.27054,44.762318 424.93931,44.839409 424.60858,44.863059 C 422.48406,45.073015 420.38916,45.449805 418.2969,45.870693 C 414.89063,46.301562 419.38571,45.793242 415.74151,45.997233 C 414.42386,46.07099 413.15165,46.597918 411.86053,46.818976 C 409.02377,47.405221 406.09996,47.3227 403.27522,48.049987 C 402.90023,48.119973 399.56791,48.746116 399.25572,48.786604 C 397.51898,49.011843 395.83661,48.966773 394.25221,49.826549 C 393.46226,50.198541 392.63625,50.681668 391.7627,50.826932 C 391.40131,50.887027 391.01861,50.790888 390.66535,50.887915 C 390.13561,51.033413 389.3739,51.675331 388.95596,51.992245 C 387.76598,52.532948 388.40807,52.329814 387.01807,52.563557 C 385.68305,53.067756 384.61841,54.326262 383.24874,54.798602 C 381.85842,55.209588 381.21287,55.843735 379.96639,56.524974 C 378.71209,57.210486 377.38557,57.772354 376.21068,58.605269 C 373.19309,59.91548 370.31481,61.498954 367.34522,62.912057 C 364.05085,64.799544 360.57572,66.349344 357.37336,68.405259 C 334.91444,80.709975 357.45062,68.381584 416.01958,34.495369 C 416.61043,34.153521 414.79675,35.105935 414.21327,35.460212 C 413.74097,35.746981 413.30987,36.096673 412.85817,36.414904 C 412.47172,36.612353 412.07425,36.789572 411.69882,37.00725 C 390.26215,49.436565 368.8486,61.905715 347.42348,74.354947 C 344.53157,75.713355 341.66139,77.106716 338.68997,78.30044 C 335.67385,79.303603 332.54172,79.901696 329.47109,80.711451 C 326.21386,81.328856 329.64511,80.589753 327.004,81.386193 C 325.64907,81.794778 324.19941,81.504008 322.85357,82.026543 C 319.80711,82.298597 323.89215,81.999224 320.51066,82.010438 C 318.95462,82.015598 317.41042,82.553366 315.85881,82.623529 C 312.01841,83.085354 308.13962,83.161867 304.33848,83.958757 C 302.94752,84.237782 301.27262,84.605424 299.85508,84.768469 C 297.79971,85.004876 295.71554,85.00826 293.69849,85.542384 C 292.66731,85.772881 292.12884,85.873469 291.11097,86.182143 C 290.68102,86.312525 290.27544,86.530655 289.83367,86.612453 C 288.75761,86.811694 287.5947,86.673798 286.54708,87.139515 C 282.25338,87.788784 288.7954,86.856952 284.05541,87.322834 C 282.52195,87.473554 281.13224,88.239668 279.61153,88.435304 C 279.20586,88.447579 278.79504,88.406518 278.39452,88.472129 C 276.75766,88.740272 275.61058,90.307501 273.84578,89.987772 C 271.86931,90.947742 269.84638,91.677058 267.9271,92.735604 C 267.52793,92.887775 267.12875,93.039946 266.72957,93.192117 C 266.38877,93.407792 266.07492,93.673569 265.70716,93.839142 C 265.32662,94.010468 264.88722,94.022739 264.50624,94.193098 C 263.20226,94.776196 262.13761,95.870548 260.76412,96.333472 C 259.57328,96.826207 258.65642,97.44196 257.56136,98.080493 C 257.24447,98.265278 256.24811,98.732875 256.56565,98.549201 C 257.15324,98.209328 425.90155,0.85152355 254.8589,99.660017 C 275.72974,87.538298 296.57411,75.370869 317.47144,63.294862 C 318.01871,62.978606 316.42075,63.999524 315.87348,64.315785 C 294.4289,76.708321 272.37012,88.100735 251.57685,101.55751 C 231.66724,114.4424 335.35027,51.323685 313.22759,66.048308 C 312.31168,66.382684 311.05852,67.092732 310.2579,67.650414 C 309.87335,67.918276 309.59315,68.322509 309.1972,68.573221 C 308.78203,68.836106 308.28161,68.937371 307.85114,69.174375 C 307.39081,69.427821 306.97269,69.751328 306.53346,70.039805 C 305.13037,70.782937 303.96253,71.74875 302.59836,72.547688 C 281.12811,85.121982 258.46401,95.840906 238.15715,110.21854 C 218.35079,124.2418 280.12213,85.83172 301.09101,73.614921 C 301.30822,73.488373 300.63955,73.836183 300.41382,73.946814 C 279.04311,86.471988 254.48832,94.704666 236.3017,111.52234 C 218.53046,127.9559 321.08475,64.920063 299.13727,75.127273 C 276.68177,85.570756 256.52154,100.39096 234.7716,112.23395 C 213.56024,123.78368 276.6162,88.102966 297.52107,76.007309 C 297.79962,75.846134 296.94214,76.288608 296.65267,76.429257 C 275.23659,88.882042 253.8205,101.33483 232.40441,113.78761 C 391.03856,21.899324 238.27526,110.46066 229.80207,115.18245 C 208.70853,126.93709 271.65796,91.088436 292.57236,79.017934 C 292.86089,78.851417 291.9781,79.31916 291.68096,79.469772 C 270.23979,91.869098 248.79861,104.26842 227.35743,116.66775 C 248.17405,104.68318 310.58869,68.668523 289.80729,80.714047 C 268.36954,93.140006 247.02187,105.72708 225.3884,117.80906 C 204.41525,129.52226 309.13487,70.729533 287.82613,81.820494 C 286.61156,82.452664 119.17505,178.74524 284.93506,83.301249 C 280.98824,85.036487 286.95069,82.284664 283.18108,84.475174 C 261.75733,96.924462 240.81552,110.2667 218.7836,121.605 C 197.3058,132.65813 302.21355,72.877228 281.51681,85.331658 C 275.15262,89.161363 118.76396,179.35068 280.00044,86.325676 C 258.49975,98.620793 236.98321,110.88824 215.49836,123.21102 C 177.41768,145.05247 415.99187,7.7275006 210.94492,125.89239 C 207.62307,127.91334 204.08987,129.578 200.60337,131.29321 C 177.67257,143.13145 197.97508,132.69332 259.044,97.436149 C 259.61795,97.10479 257.88827,98.085179 257.31513,98.41794 C 235.87379,110.86677 214.12969,122.80905 193.00065,135.78088 C 173.53769,147.72985 275.00717,86.484351 252.34884,101.54561 C 250.95222,102.14936 249.81484,103.06836 248.52423,103.85393 C 248.23217,104.03171 247.87797,104.10144 247.60247,104.30393 C 247.27182,104.54696 247.02092,104.88305 246.73014,105.1726 C 243.5097,106.58121 241.32038,109.39939 238.31279,111.16242 C 237.0909,112.13831 235.81752,113.05092 234.6284,114.06649 C 234.10992,114.5093 233.67189,115.04237 233.14365,115.47348 C 231.76093,116.60196 230.21834,117.5398 229.06256,118.94851 C 228.76332,119.31157 228.53908,119.75256 228.16484,120.03769 C 227.90191,120.23801 227.51416,120.19214 227.22353,120.34962 C 226.92062,120.51377 226.69867,120.79891 226.41079,120.98817 C 226.11944,121.17972 225.76433,121.27038 225.49194,121.48805 C 225.16526,121.7491 224.97277,122.157 224.63671,122.40586 C 224.3021,122.65364 223.88809,122.77057 223.51379,122.95293 C 222.62927,123.68301 222.30814,124.00165 221.31796,124.60067 C 220.89457,124.85681 220.42344,125.03103 220.01018,125.30322 C 218.48547,126.30747 217.15273,127.63205 215.45264,128.37931 C 211.84277,130.34975 215.02758,128.47609 211.3138,131.11968 C 210.48661,131.7085 209.60154,132.21303 208.77408,132.80149 C 206.10829,134.69729 203.77348,136.99719 200.99447,138.73779 C 200.05534,139.39669 199.08052,140.00744 198.17708,140.71448 C 191.72258,145.76586 199.05351,140.35606 193.55433,144.91517 C 192.09713,146.12326 190.22897,146.8291 189.06335,148.40489 C 187.45644,149.58488 185.69459,150.6317 184.20569,151.96319 C 180.92034,154.90121 184.73488,151.68768 182.04939,154.34151 C 181.79731,154.59062 181.48089,154.76482 181.19664,154.97648 C 178.69775,156.40842 181.88682,154.45112 179.35451,156.50007 C 179.00971,156.77906 178.55872,156.90289 178.20567,157.17136 C 177.01471,158.07704 176.10417,159.36139 174.85085,160.20177 C 172.12199,162.3787 169.48032,164.61186 167.04592,167.11213 C 166.44434,167.61738 165.73521,167.99647 165.18118,168.55345 C 164.90179,168.83433 164.77607,169.2456 164.49196,169.5217 C 164.25192,169.75497 163.88105,169.82051 163.63922,170.05192 C 161.62212,171.98222 164.38691,170.08693 162.06016,171.54705 C 159.71596,174.58939 162.85704,170.73056 160.32841,173.19798 C 160.00693,173.51168 159.82739,173.94871 159.51919,174.27546 C 159.19693,174.61713 158.76338,174.84288 158.44836,175.19124 C 158.07047,175.60911 157.78588,176.10273 157.45464,176.55847 C 157.06414,176.96958 156.67364,177.38068 156.28313,177.79179 C 155.96365,178.29457 155.64416,178.79735 155.32468,179.30012 C 155.02386,179.6195 154.66459,179.89255 154.42222,180.25827 C 154.17938,180.62469 154.09867,181.07796 153.89002,181.46488 C 153.28195,182.59245 152.61859,183.70863 151.91574,184.78123 C 151.08053,186.44609 151.451,185.55898 150.83132,187.45368 C 150.63784,187.85368 150.30389,188.17021 150.07159,188.54899 C 149.21299,189.94897 148.35641,191.33805 147.50992,192.74866 C 146.10537,195.64622 144.48576,198.45109 143.20485,201.40888 C 142.86714,202.18867 142.67437,203.02839 142.3091,203.79566 C 142.00357,204.43746 141.5705,205.01035 141.20119,205.6177 C 139.37647,209.15269 137.64723,212.80415 135.32296,216.03656 C 135.18676,216.51121 135.11669,217.01005 134.91436,217.4605 C 134.75421,217.81703 134.44768,218.08945 134.24952,218.42635 C 134.02991,218.79973 133.89441,219.2197 133.66393,219.58647 C 132.98527,220.66645 132.03543,221.55664 131.7556,222.87236 C 130.43669,225.12799 129.53763,227.65015 127.81079,229.65536 C 125.54412,233.14048 128.76481,228.09447 126.48163,232.01467 C 125.47427,233.7443 125.90206,232.48597 125.04462,234.3803 C 124.82487,234.86581 124.7331,235.40823 124.47315,235.87347 C 124.25182,236.26959 123.90329,236.57976 123.61836,236.93291 C 121.63741,239.80794 119.76786,242.75307 117.8167,245.65119 C 116.61234,246.8779 116.2929,247.64144 115.44388,249.08787 C 114.65635,250.42955 113.64057,251.64136 113.20937,253.18008 C 110.58045,256.39233 108.24611,259.84759 105.78334,263.18659 C 104.02594,266.05816 101.91514,268.66884 100.06651,271.44405 C 99.173284,272.81897 99.598552,272.08473 98.807877,273.65662 C 98.299654,274.46578 97.727773,275.23582 97.124753,275.97702 C 96.785405,276.39414 96.341024,276.71982 96.012994,277.14589 C 95.625141,277.64966 95.328972,278.2178 94.986961,278.75375 C 94.239575,279.71944 93.598976,280.76596 92.833201,281.71713 C 92.571626,282.04203 92.209825,282.27558 91.940901,282.59443 C 91.733354,282.8405 91.623252,283.1596 91.411836,283.40236 C 91.232034,283.60882 90.921842,283.69304 90.780139,283.92729 C 90.578583,284.26049 90.541177,284.66856 90.421695,285.0392 C 88.271546,288.80811 91.428709,283.55834 89.216824,286.4436 C 88.840791,286.9341 88.832105,287.63976 88.470315,288.14086 C 88.322774,288.34522 88.0152,288.41244 87.898832,288.63602 C 87.725012,288.96998 87.726506,289.36902 87.640343,289.73552 C 86.655025,292.13468 87.8824,289.42701 86.719653,291.29097 C 86.548364,291.56556 86.486062,291.89838 86.31767,292.17476 C 86.160338,292.43298 85.870055,292.60482 85.750047,292.88237 C 85.577859,293.2806 85.575813,293.73297 85.462801,294.15185 C 85.351535,294.56427 85.206125,294.9667 85.077787,295.37413 C 84.522178,296.65207 84.435842,297.98144 83.936824,299.26789 C 83.792477,299.64001 83.515241,299.94933 83.358649,300.31646 C 82.982285,301.19886 82.865306,302.18114 82.355227,303.01381 C 81.37553,306.86781 79.7188,310.47803 78.710245,314.33273 C 78.491619,315.07203 78.272993,315.81134 78.054366,316.55064 C 77.883873,317.29496 77.753219,318.04955 77.542888,318.78361 C 77.371579,319.38148 77.073718,319.93891 76.911486,320.53931 C 76.540186,321.91344 76.534939,323.40074 75.903503,324.71231 C 74.62119,327.55009 76.197959,323.85299 75.144144,327.105 C 75.033616,327.44608 74.790019,327.73361 74.676932,328.07385 C 74.277336,329.2761 74.229886,330.61147 73.577778,331.73805 C 73.176252,334.26638 71.683304,336.45165 71.670706,339.06408 C 71.236649,341.47616 70.574115,343.8224 70.241904,346.25606 C 69.666404,348.51047 70.227084,350.89957 70.017975,353.20975 C 70.013821,355.66087 70.081057,358.11653 70.48859,360.53969 C 70.671821,361.47402 70.928898,362.39595 71.050038,363.34033 C 71.257207,364.95539 71.093186,366.63097 71.493092,368.23073 C 71.665923,369.17208 71.938905,370.09506 72.074563,371.04248 C 72.298828,372.60873 72.065571,374.2536 72.506167,375.80147 C 72.676303,376.75244 72.921941,377.69096 73.044907,378.64917 C 73.256397,380.2972 73.125992,381.99976 73.489064,383.63575 C 73.529479,383.86044 73.998823,386.45695 74.010883,386.58019 C 74.198932,388.50194 73.966866,390.47693 74.252887,392.3978 C 74.546099,395.92654 74.910974,399.43263 74.989013,402.97563 C 74.943083,404.10681 74.84244,405.05092 74.363576,406.09137 C 74.227313,406.38744 73.984202,406.63638 73.896245,406.95021 C 73.626425,407.91291 73.828594,408.96966 73.473847,409.91971 C 72.852352,413.10527 72.199667,416.27757 71.477938,419.43878 C 71.126779,421.92601 70.24832,424.24931 69.551844,426.65173 C 69.28112,427.28674 68.824314,427.83622 68.588778,428.48511 C 68.430592,428.9209 68.424397,429.39779 68.328768,429.85143 C 68.069952,431.07919 67.608556,432.24837 67.51902,433.5078 C 67.453877,433.87715 67.388735,434.2465 67.323592,434.61585 C 67.204808,434.86288 67.030621,435.09027 66.96724,435.35694 C 66.641648,436.72685 66.901022,438.2461 66.48946,439.61332 C 66.04959,441.63316 67.394987,443.56932 67.219577,445.62967 C 67.450537,447.26545 68.176579,448.74364 68.302363,450.39166 C 68.756022,452.18537 69.399784,453.92142 69.885619,455.70394 C 70.689814,457.55309 71.33097,459.47143 72.310552,461.24577 C 73.009989,462.98703 74.321989,464.41372 75.11082,466.11738 C 76.507857,468.26971 77.895144,470.43369 79.436842,472.48604 C 81.316854,475.01293 83.570387,477.19657 85.337646,479.77787 C 86.478682,481.85914 88.060413,483.6792 89.546015,485.51634 C 91.169785,487.29934 92.689231,489.17342 94.049753,491.16696 C 95.665658,493.51438 97.421663,495.77511 98.628109,498.37894 C 100.23068,500.93451 101.42258,503.67223 102.57182,506.45673 C 104.57273,510.90446 105.8157,515.646 107.42164,520.24393 C 109.09804,524.31851 110.92708,528.27977 113.57238,531.82593 C 114.84625,533.61706 116.20149,535.35787 117.76533,536.90754 C 119.1408,538.27911 120.5295,539.62122 121.84115,541.0564 C 123.08482,542.19595 124.45047,543.16266 125.98267,543.87876 C 127.95953,544.97431 130.14406,545.52933 132.18766,546.46499 C 134.4441,547.52528 136.84964,548.24119 139.05217,549.43257 C 141.5845,550.40595 144.10561,551.4631 146.75916,552.05766 C 149.07821,552.67541 151.45467,552.7654 153.78641,553.30158 C 157.12368,553.67119 152.57589,553.2441 155.59865,553.29875 C 157.20565,553.32781 158.78969,553.89586 160.38285,554.04578 C 163.25662,554.4871 166.16461,554.30075 169.02287,554.90147 C 171.99124,555.4971 174.96727,555.75514 177.9712,556.11112 C 182.33649,556.65594 186.73057,556.89709 191.08586,557.5359 C 197.50126,558.41331 203.93297,559.09217 210.35812,559.87048 C 217.07152,560.91249 223.79547,561.79144 230.52019,562.74509 C 236.83917,563.62666 243.24447,563.93973 249.50843,565.22984 C 253.79129,565.92572 258.0838,566.41146 262.41194,566.66819 C 265.38564,566.9864 268.3296,567.42381 271.31998,567.11939 C 274.43133,567.18651 277.55309,567.27868 280.65495,566.96168 L 220.49967,610.66705 z" />
  </g>
</svg>
